<svg width="34" height="41" viewBox="0 0 34 41" fill="none" xmlns="http://www.w3.org/2000/svg">
<path d="M32.7382 34.7859C23.3008 42.0524 10.1374 41.9943 0.764526 34.6447L7.63417 31.4244C7.96133 31.2707 8.27533 31.0903 8.573 30.8852C8.66335 30.823 8.7537 30.7581 8.83982 30.6903C9.58747 30.1183 10.2029 29.3916 10.6441 28.56C10.9776 27.921 11.1991 27.2296 11.2991 26.5157C11.3681 26.0526 11.403 25.585 11.4036 25.1167C11.4036 24.3092 11.3598 23.5016 11.3513 22.6927C11.3457 22.2447 11.341 21.7972 11.3372 21.3501L11.6196 21.4913L12.3537 21.871L12.6939 21.9289L16.6299 22.5981L21.0233 23.3463L21.1561 27.864L21.1998 29.3407L21.221 30.0579V30.1045L22.9292 30.799L32.7382 34.7859Z" fill="#E18477"/>
<path d="M21.2149 29.9308C20.7297 30.0142 20.2304 29.9369 19.7932 29.7105L11.3692 22.8197C11.3593 22.5006 11.3509 22.8352 11.3466 22.5162C11.341 22.0691 11.3363 21.6216 11.3325 21.1736L11.6149 21.3148L12.349 21.6945L12.6892 21.7524L16.6252 22.4216L21.0186 23.1698L21.1513 27.6875L21.1951 29.1642L21.2163 29.8813V29.9279L21.2149 29.9308Z" fill="#A76962"/>
<path d="M27.5146 7.04032C29.9367 8.41236 31.8442 10.5381 32.9471 13.094C32.0096 13.1699 31.0853 13.3624 30.1955 13.6671H30.1871C29.9555 13.7462 29.7259 13.8333 29.4981 13.9283L29.3569 13.989L29.1325 14.0878C29.0577 14.1203 28.9828 14.1556 28.9094 14.1923C28.836 14.229 28.7682 14.2643 28.6878 14.3024C28.6073 14.3406 28.5466 14.3773 28.4689 14.4168C28.3913 14.4563 28.3405 14.486 28.2769 14.5227C28.1245 14.6074 27.9748 14.6963 27.828 14.7881C27.7697 14.8238 27.7118 14.8606 27.6544 14.8982C27.0882 15.2647 26.5566 15.6819 26.0661 16.1448C25.4464 16.7307 24.8675 17.4041 24.2308 18.0055C23.6848 18.5559 23.0452 19.0048 22.3419 19.3311C20.981 19.917 19.4068 20.2558 17.9937 20.7429L11.3584 23.037C11.3584 22.9326 10.6073 22.19 9.66425 21.285C7.18234 18.9255 5.74428 15.6734 5.66895 12.2497C5.44025 1.90714 17.5899 -1.1338 25.8572 1.08267C27.1704 1.43628 28.4193 1.99568 29.5574 2.74009C30.3112 3.22749 31.0008 3.80755 31.6101 4.46667C32.3212 5.23167 32.8922 6.11571 33.2972 7.07844L33.1857 7.05867C31.3116 6.71308 29.3908 6.70687 27.5146 7.04032Z" fill="url(#paint0_linear_178_41)"/>
<path d="M32.947 13.0941C32.0095 13.17 31.0852 13.3626 30.1955 13.6673H30.187C29.9527 13.7416 29.7227 13.8288 29.498 13.9285L29.3569 13.9892L29.1296 14.0908C29.0547 14.1247 28.9813 14.1586 28.9065 14.1953C28.8317 14.232 28.7653 14.2673 28.6849 14.3054C28.6044 14.3435 28.5437 14.3802 28.466 14.4198C28.3884 14.4593 28.3376 14.4889 28.274 14.5257C28.1216 14.6104 27.9719 14.6993 27.8251 14.7911L27.6515 14.9012C27.0853 15.2676 26.5537 15.6849 26.0632 16.1478C25.4435 16.7337 24.8646 17.4071 24.2279 18.0085C24.0218 18.0932 23.8171 18.1821 23.6124 18.2711C23.6378 18.2598 23.45 15.8711 23.4557 15.6297C23.4793 14.7073 23.5846 13.7889 23.7705 12.8852C24.1291 11.1473 23.9004 9.53083 24.2463 7.74918C24.3193 7.3515 24.4136 6.95799 24.5286 6.57036C25.1187 6.12989 25.9404 5.99436 26.6562 5.8913C28.3715 5.64424 30.1362 5.8786 31.7865 6.39812C32.0594 6.48453 32.3276 6.58538 32.5898 6.70024C32.714 6.7553 32.8355 6.8146 32.9555 6.87812C33.0613 6.95782 33.1759 7.02509 33.2971 7.0786C31.3849 6.72579 29.4255 6.71288 27.5089 7.04048C29.933 8.41156 31.8427 10.5374 32.947 13.0941Z" fill="url(#paint1_linear_178_41)"/>
<ellipse cx="9.9481" cy="17.3956" rx="2.4" ry="2.4" fill="#E18477"/>
<ellipse cx="10.7083" cy="17.3955" rx="2.14871" ry="2.14871" fill="#A76962"/>
<path d="M10.7415 15.1312L11.3598 23.1782L20.7396 28.6587C22.0862 29.161 23.594 28.5586 24.2238 27.2667C25.5735 24.5025 27.7391 20.1387 27.4539 18.5138C27.0304 16.1138 25.901 15.2667 25.901 15.2667C26.0582 14.3255 26.2144 13.3872 26.3697 12.4516C26.5476 11.3914 26.7735 10.2846 26.5109 9.21871C26.2102 7.99753 25.2869 7.47518 24.5273 6.56177C22.5283 9.13683 19.2417 10.5924 16.3716 12.0676C14.8892 12.8469 10.7415 15.1312 10.7415 15.1312Z" fill="#E18477"/>
<path d="M15.2656 13.4666C16.5729 13.1986 17.9172 13.1627 19.2369 13.3607" stroke="#00214E" stroke-width="0.198265"/>
<path d="M23.6028 13.482C24.4098 13.2956 25.2413 13.2379 26.0663 13.3112" stroke="#00214E" stroke-width="0.198265"/>
<path d="M20.3515 18.9148C20.1407 19.0227 20.0401 19.268 20.1144 19.4928C20.1888 19.7175 20.4159 19.8546 20.6493 19.8155" stroke="#00214E" stroke-width="0.198265"/>
<path d="M22.8992 17.455C22.8992 17.455 22.9401 18.2526 23.1279 18.6267C23.2084 18.7877 23.334 18.9232 23.4103 19.0841C23.7223 19.6954 23.2183 19.8253 22.7312 19.8253" stroke="#00214E" stroke-width="0.198265"/>
<path d="M32.7382 34.7859C23.3008 42.0524 10.1374 41.9943 0.764526 34.6447L7.63417 31.4245C7.96133 31.2707 8.27533 31.0903 8.573 30.8852C8.66335 30.823 8.7537 30.7581 8.83982 30.6903C9.58747 30.1183 10.2029 29.3916 10.6441 28.56C10.9776 27.921 11.1991 27.2296 11.2991 26.5157C11.3988 26.6124 11.5034 26.7038 11.6125 26.7896C12.4782 27.4297 13.4176 27.9634 14.4106 28.3793C14.8928 28.5804 15.3858 28.7543 15.8873 28.9002C17.3985 29.3409 18.9763 29.5077 20.5462 29.3929C20.7636 29.376 20.9824 29.3548 21.1998 29.3393L21.221 30.0565V30.103L22.9292 30.7976L32.7382 34.7859Z" fill="#00214E"/>
<circle cx="18.2197" cy="15.5841" r="2.68235" stroke="white" stroke-width="0.198265"/>
<ellipse cx="25.7217" cy="15.1607" rx="2.68235" ry="2.68235" stroke="white" stroke-width="0.198265"/>
<path d="M20.9016 15.5843L23.039 15.4008" stroke="white" stroke-width="0.198265"/>
<path d="M18.0191 21.4403C18.0584 21.3785 18.1216 21.3358 18.1936 21.3224C18.2656 21.3091 18.34 21.3262 18.3989 21.3697C18.6911 21.5759 19.229 22.0135 19.9913 22.1646C21.0304 22.3721 21.9311 21.9556 22.1471 22.2239C22.2685 22.3749 22.1203 22.5599 21.8365 22.7956C21.2357 23.2443 20.4795 23.4321 19.7386 23.3166C18.7391 23.1288 17.988 21.9712 17.988 21.5603C17.9883 21.5184 17.9989 21.4771 18.0191 21.4403Z" fill="white"/>
<ellipse cx="17.5877" cy="15.5592" rx="0.461647" ry="1.12094" transform="rotate(-85.77 17.5877 15.5592)" fill="#00214E"/>
<ellipse cx="24.8598" cy="15.3304" rx="1.12094" ry="0.461647" transform="rotate(-8.85999 24.8598 15.3304)" fill="#00214E"/>
<defs>
<linearGradient id="paint0_linear_178_41" x1="21.6488" y1="25.4422" x2="38.3334" y2="4.75217" gradientUnits="userSpaceOnUse">
<stop stop-color="#16243F"/>
<stop offset="1" stop-color="#6878B1"/>
</linearGradient>
<linearGradient id="paint1_linear_178_41" x1="23.4571" y1="18.2707" x2="33.2971" y2="18.2707" gradientUnits="userSpaceOnUse">
<stop stop-color="#16243F"/>
<stop offset="1" stop-color="#6878B1"/>
</linearGradient>
</defs>
</svg>
