<svg width="301" height="223" viewBox="0 0 301 223" fill="none" xmlns="http://www.w3.org/2000/svg">
<g filter="url(#filter0_d_1_6533)">
<g clip-path="url(#clip0_1_6533)">
<rect width="340" height="180" rx="7.25333" transform="matrix(0.962455 0.27144 -0.707107 0.707107 128.034 0.998047)" fill="#0078FF"/>
<path d="M365.883 176.476L365.885 176.479C368.377 179.014 372.008 181.086 377.22 180.703C383.124 180.254 389.474 177.146 395.544 173.228C399.707 170.541 403.598 167.57 407.019 164.957C408.578 163.767 410.038 162.652 411.383 161.671C412.54 160.824 413.734 159.933 414.96 159.017C417.63 157.023 420.455 154.912 423.401 152.892C427.712 149.937 432.361 147.119 437.337 145.037L437.345 145.034C439.233 144.258 441.103 143.568 443.066 143.03C446.305 142.134 449.346 141.833 452.245 141.546C452.743 141.496 453.236 141.448 453.726 141.396C457.102 141.042 460.386 140.565 463.996 139.092C467.577 137.612 471.943 134.35 475.54 130.383C479.11 126.447 481.824 121.923 482.244 117.965C482.234 117.887 482.242 117.817 482.247 117.779L482.248 117.771C482.251 117.74 482.252 117.727 482.252 117.724L482.242 117.683L482.245 117.636C482.464 114.73 481.254 112.853 479.922 111.281C475.571 106.348 468.14 103.218 457.574 104.865C456.048 105.125 455.056 104.575 454.316 103.97L454.312 103.966C453.399 103.196 452.701 102.013 452.088 100.726C451.731 99.9758 451.389 99.1584 451.049 98.347C450.809 97.7739 450.571 97.2037 450.329 96.6622C449.733 95.328 449.103 94.135 448.336 93.3044C447.544 92.4465 446.739 92.1212 445.937 92.1894L445.937 92.1895C442.599 92.4724 439.007 93.3491 435.25 94.5149C432.305 95.4287 429.307 96.5039 426.277 97.5904C425.435 97.8926 424.59 98.1957 423.743 98.4964C416.059 101.224 408.165 103.785 401.417 103.114L401.416 103.114C396.336 102.604 391.141 102.913 385.794 103.443C384.057 103.615 382.293 103.812 380.511 104.011C376.848 104.42 373.108 104.838 369.361 105.067C368.458 105.123 367.61 104.975 366.824 104.722C366.033 104.467 365.257 104.091 364.498 103.648C363.102 102.833 361.697 101.751 360.316 100.688C360.2 100.599 360.085 100.51 359.97 100.422C358.462 99.2629 356.988 98.156 355.537 97.4014C354.813 97.0249 354.121 96.7499 353.461 96.5984C352.802 96.447 352.224 96.4296 351.71 96.5217C348.271 97.1414 344.979 98.6078 341.837 100.661C338.693 102.715 335.746 105.327 333.019 108.175C328.29 113.113 324.303 118.671 321.121 123.107C320.63 123.792 320.157 124.451 319.705 125.076M365.883 176.476L318.973 124.988M365.883 176.476C364.076 174.675 362.744 172.595 361.446 170.436C361.264 170.133 361.083 169.829 360.901 169.524C359.793 167.663 358.664 165.769 357.249 164.009M365.883 176.476L365.154 176.833M319.705 125.076C319.704 125.076 319.704 125.076 319.704 125.076L318.973 124.988M319.705 125.076C319.705 125.076 319.705 125.076 319.705 125.076L318.973 124.988M319.705 125.076C316.947 128.89 315.052 132.874 313.688 136.834L313.687 136.837C311.828 142.091 311.726 147.231 314.211 151.007C316.683 154.762 321.718 157.185 330.253 157.047L330.255 157.047C338.734 156.926 345.926 156.915 351.319 159.349L351.322 159.35C353.637 160.408 355.634 161.915 357.249 164.009M318.973 124.988C316.175 128.856 314.262 132.885 312.889 136.873C309.127 147.505 312.403 157.846 330.036 157.562C338.546 157.44 345.512 157.443 350.726 159.796C352.964 160.819 354.911 162.283 356.493 164.335M357.249 164.009C357.249 164.008 357.248 164.007 357.247 164.006L356.493 164.335M357.249 164.009C357.25 164.01 357.251 164.01 357.251 164.011L356.493 164.335M356.493 164.335C357.894 166.077 359.011 167.951 360.121 169.814C361.595 172.288 363.056 174.741 365.154 176.833M365.154 176.833C367.671 179.393 371.462 181.627 377.076 181.214C387.68 180.409 399.215 171.602 407.635 165.173C409.181 163.992 410.623 162.892 411.934 161.935C413.109 161.076 414.311 160.178 415.543 159.258C422.096 154.362 429.46 148.861 437.637 145.441C439.496 144.677 441.307 144.011 443.193 143.494L365.154 176.833Z" stroke="#338EFF" stroke-opacity="0.5" stroke-width="1.36" stroke-miterlimit="10"/>
<path d="M362.528 180.273L362.527 180.272C360.57 178.245 359.13 175.927 357.727 173.549C357.572 173.287 357.418 173.025 357.264 172.762C356.023 170.647 354.766 168.507 353.168 166.549C351.358 164.259 349.215 162.6 346.651 161.439C340.79 158.75 332.964 158.7 323.567 158.858C313.989 159.005 308.371 156.301 305.63 152.116C302.875 147.91 303.022 142.19 305.098 136.345C306.681 131.94 308.794 127.511 311.845 123.255C312.417 122.465 313.018 121.625 313.645 120.746C317.121 115.882 321.446 109.828 326.564 104.43C329.582 101.246 332.849 98.3202 336.341 96.0191C339.831 93.7197 343.497 92.0751 347.338 91.3874L347.343 91.3865C347.936 91.2782 348.595 91.2994 349.336 91.4712C350.077 91.6431 350.851 91.9547 351.656 92.3795C353.27 93.2305 354.906 94.4787 356.574 95.7821C356.707 95.8857 356.839 95.9897 356.972 96.0938C358.496 97.2865 360.043 98.4973 361.578 99.4101C362.415 99.9075 363.269 100.329 364.138 100.614C365.001 100.897 365.927 101.062 366.91 101C371.113 100.743 375.29 100.267 379.379 99.8008C381.343 99.577 383.287 99.3555 385.203 99.1617C391.149 98.5602 396.936 98.2109 402.64 98.8045L402.642 98.8047C410.06 99.5609 418.763 96.6847 427.267 93.6049C428.208 93.2638 429.149 92.9199 430.086 92.5768C433.434 91.3521 436.75 90.1386 440.009 89.1061C444.173 87.7866 448.161 86.7902 451.87 86.4639C452.776 86.3867 453.664 86.7662 454.517 87.7325C455.343 88.6696 456.011 90.0129 456.637 91.5116C456.895 92.1293 457.148 92.7794 457.403 93.4325C457.755 94.3352 458.109 95.2437 458.481 96.0801C459.125 97.5272 459.859 98.8551 460.829 99.7249C461.628 100.46 462.763 100.991 464.342 100.737C475.962 98.9059 484.183 102.391 489.007 107.879C490.483 109.597 491.797 111.724 491.556 114.98L491.552 115.027L491.56 115.057C491.558 115.069 491.555 115.084 491.549 115.116C491.544 115.144 491.535 115.19 491.53 115.237C491.527 115.27 491.525 115.311 491.53 115.357C491.088 119.735 488.089 124.763 484.134 129.141C480.152 133.549 475.302 137.187 471.306 138.833C467.268 140.497 463.606 141.03 459.86 141.422C459.313 141.479 458.762 141.534 458.207 141.588C454.995 141.905 451.642 142.236 448.07 143.233L448.061 143.236L448.051 143.239C445.925 143.864 443.818 144.594 441.709 145.477L441.706 145.478C436.204 147.799 431.067 150.932 426.299 154.215C423.114 156.407 420.055 158.694 417.158 160.861C415.729 161.929 414.34 162.968 412.993 163.952L412.993 163.952C411.52 165.03 409.915 166.261 408.199 167.578C404.424 170.474 400.112 173.783 395.493 176.771C388.763 181.125 381.682 184.591 375.07 185.056L375.065 185.056C369.32 185.48 365.244 183.109 362.528 180.273Z" stroke="#338EFF" stroke-opacity="0.5" stroke-width="1.36" stroke-miterlimit="10"/>
<path d="M359.195 184.083L359.193 184.08C357.086 181.828 355.559 179.274 354.058 176.659C353.93 176.435 353.802 176.211 353.674 175.987C352.308 173.597 350.923 171.176 349.109 168.955C347.102 166.465 344.739 164.657 342.006 163.395C335.7 160.399 327.206 160.341 316.902 160.535L316.901 160.535C306.333 160.741 300.15 157.757 297.142 153.135C294.12 148.492 294.3 142.178 296.582 135.766L296.582 135.765C298.286 130.964 300.544 126.094 303.982 121.351L303.982 121.351C304.642 120.44 305.336 119.466 306.064 118.445C309.853 113.131 314.563 106.526 320.133 100.62C323.45 97.1032 327.045 93.8653 330.894 91.315C334.74 88.7665 338.789 86.9366 343.039 86.1688C343.71 86.0489 344.448 86.0785 345.269 86.2753C346.091 86.4722 346.945 86.8248 347.831 87.3013C349.605 88.256 351.402 89.6504 353.228 91.1016C353.369 91.2135 353.51 91.3257 353.652 91.4381C355.326 92.7701 357.022 94.12 358.706 95.1367C359.621 95.689 360.553 96.1559 361.499 96.4713C362.439 96.7847 363.444 96.9653 364.505 96.8985C369.174 96.6271 373.822 96.0968 378.381 95.5768C380.487 95.3365 382.574 95.0984 384.636 94.889C391.198 94.2224 397.596 93.8329 403.887 94.5088L404.241 94.0004L403.887 94.5088C411.963 95.3761 421.475 92.1841 430.803 88.7464C431.85 88.3604 432.896 87.971 433.939 87.5824C437.595 86.2206 441.222 84.8697 444.786 83.7186C449.36 82.2413 453.747 81.1221 457.827 80.7525L457.832 80.7521C458.845 80.6567 459.818 81.0849 460.739 82.163C461.631 83.2081 462.342 84.708 463.005 86.3775C463.28 87.0696 463.548 87.797 463.818 88.5272C464.188 89.5292 464.56 90.5364 464.952 91.4647C465.633 93.0754 466.412 94.5471 467.449 95.5053C468.343 96.3376 469.517 96.9192 471.236 96.6776L471.247 96.6761L471.258 96.6743C484.08 94.6617 493.066 98.5534 498.312 104.545C499.934 106.412 501.373 108.738 501.109 112.342L501.108 112.354L501.108 112.366C501.108 112.406 501.102 112.44 501.09 112.502C501.079 112.56 501.062 112.643 501.061 112.743C500.557 117.572 497.244 123.126 492.886 127.957C488.507 132.812 483.175 136.826 478.765 138.638C474.31 140.469 470.268 141.059 466.146 141.495C465.552 141.558 464.955 141.618 464.354 141.678C460.819 142.031 457.145 142.398 453.233 143.497C450.854 144.127 448.54 144.959 446.247 145.934C440.193 148.471 434.549 151.918 429.32 155.534C425.802 157.966 422.435 160.503 419.252 162.9C417.714 164.058 416.22 165.183 414.773 166.248C413.119 167.454 411.31 168.84 409.371 170.326C405.25 173.485 400.545 177.091 395.508 180.353C388.093 185.156 380.275 188.991 372.993 189.472C366.578 189.89 362.106 187.263 359.195 184.083Z" stroke="#338EFF" stroke-opacity="0.5" stroke-width="1.36" stroke-miterlimit="10"/>
<path d="M355.802 187.878L355.801 187.876C353.544 185.399 351.911 182.607 350.317 179.75C350.154 179.458 349.992 179.165 349.829 178.872C348.405 176.306 346.964 173.71 345.096 171.308L345.094 171.306C342.964 168.616 340.45 166.654 337.467 165.287C330.525 162.087 321.448 162.019 310.258 162.2L310.255 162.2C298.643 162.416 291.882 159.139 288.608 154.081C285.319 149 285.545 142.105 288.032 135.126L288.032 135.125C289.879 129.885 292.428 124.572 296.161 119.384C296.905 118.354 297.69 117.251 298.514 116.091C302.629 110.304 307.738 103.118 313.773 96.6883C317.392 92.832 321.317 89.2788 325.52 86.481C329.721 83.6852 334.149 81.6766 338.801 80.8405C339.55 80.7091 340.369 80.7468 341.271 80.9675C342.173 81.1883 343.109 81.5803 344.076 82.1067C346.012 83.1612 347.971 84.6973 349.958 86.2931C350.118 86.4213 350.277 86.5499 350.437 86.6786C352.253 88.1393 354.088 89.6163 355.909 90.7324C356.902 91.3407 357.91 91.8547 358.931 92.2037C359.947 92.5508 361.026 92.7521 362.162 92.687L362.168 92.6866C367.164 92.3769 372.136 91.8011 377.016 91.2359C379.411 90.9585 381.784 90.6837 384.127 90.4441C391.285 89.7122 398.271 89.2942 405.151 90.0526L405.152 90.0527C409.52 90.5303 414.28 89.8891 419.194 88.666C424.1 87.445 429.214 85.6302 434.316 83.7276C435.483 83.2924 436.649 82.853 437.812 82.4145C441.76 80.9258 445.68 79.4477 449.531 78.184C454.51 76.5503 459.287 75.3046 463.728 74.8791C464.849 74.7742 465.903 75.2606 466.882 76.4522C467.832 77.6085 468.578 79.2651 469.267 81.1053C469.555 81.873 469.835 82.6791 470.117 83.4878C470.499 84.588 470.883 85.6933 471.291 86.7141C472 88.4901 472.815 90.1096 473.911 91.1678C474.827 92.0982 476.13 92.7502 477.978 92.4464C491.998 90.2553 501.77 94.5046 507.409 101.043C509.149 103.102 510.705 105.615 510.438 109.531C510.359 109.733 510.361 109.917 510.362 110.035L510.362 110.041C509.823 115.314 506.201 121.383 501.447 126.66C496.671 131.961 490.856 136.352 486.066 138.332L486.065 138.332C481.183 140.354 476.779 141 472.298 141.474C471.642 141.543 470.983 141.609 470.32 141.675C466.482 142.058 462.497 142.455 458.227 143.652C455.578 144.378 453.072 145.306 450.619 146.322L450.607 146.327C444.017 149.127 437.878 152.902 432.188 156.851C428.436 159.455 424.84 162.164 421.435 164.729C419.688 166.045 417.992 167.323 416.35 168.53C414.616 169.802 412.719 171.262 410.685 172.826C406.158 176.31 400.955 180.312 395.385 183.921C387.299 189.16 378.748 193.356 370.779 193.876L370.779 193.876C363.833 194.335 358.94 191.363 355.802 187.878Z" stroke="#338EFF" stroke-opacity="0.5" stroke-width="1.36" stroke-miterlimit="10"/>
<path d="M352.452 191.698L352.452 191.698C355.813 195.484 361.077 198.756 368.707 198.258L368.712 198.258C377.389 197.722 386.672 193.167 395.417 187.493C401.444 183.582 407.069 179.241 411.951 175.474C414.141 173.783 416.181 172.209 418.042 170.84M352.452 191.698L418.597 171.101M352.452 191.698C350.045 188.994 348.299 185.977 346.581 182.9C346.451 182.666 346.32 182.432 346.189 182.197C344.607 179.357 343.007 176.484 340.9 173.825L340.899 173.823C338.57 170.931 335.885 168.871 332.688 167.355L332.685 167.354C325.275 163.898 315.562 163.771 303.457 163.988L303.453 163.988C290.814 164.262 283.488 160.705 279.956 155.211C276.411 149.694 276.687 142.205 279.379 134.659L279.38 134.658C281.397 128.922 284.091 123.168 288.186 117.544L288.186 117.544C289.091 116.3 290.05 114.955 291.062 113.536C295.471 107.354 300.887 99.7614 307.258 92.9413C311.172 88.7518 315.417 84.8863 319.971 81.8393C324.523 78.7936 329.332 76.5992 334.394 75.6833M352.452 191.698L287.455 117.454M418.042 170.84L418.597 171.101M418.042 170.84C418.041 170.84 418.041 170.84 418.04 170.841L418.597 171.101M418.042 170.84C419.784 169.552 421.584 168.188 423.438 166.784C427.13 163.987 431.036 161.028 435.122 158.183C441.274 153.9 447.921 149.81 455.065 146.794L455.068 146.793C457.728 145.675 460.4 144.704 463.229 143.886L463.238 143.883C467.852 142.582 472.175 142.147 476.348 141.728C477.061 141.656 477.77 141.585 478.476 141.51C483.342 140.992 488.124 140.29 493.384 138.101C498.605 135.929 504.897 131.173 510.062 125.438C515.205 119.728 519.133 113.156 519.754 107.413M418.597 171.101C420.359 169.799 422.169 168.427 424.028 167.019C433.252 160.032 443.681 152.131 455.369 147.196C457.987 146.096 460.606 145.145 463.373 144.345C467.855 143.081 472.042 142.659 476.219 142.238C481.832 141.673 487.424 141.11 493.681 138.506C504.594 133.966 519.319 118.99 520.573 107.28M519.754 107.413L519.754 107.43L520.573 107.28M519.754 107.413L519.754 107.409C519.753 107.291 519.751 107.106 519.83 106.905M519.754 107.413C519.755 107.407 519.755 107.401 519.756 107.396L520.573 107.28M520.573 107.28C520.572 107.131 520.571 106.983 520.644 106.835M406.671 85.2622C396.632 84.1318 386.393 85.3173 375.968 86.5243C370.639 87.1413 365.261 87.7639 359.836 88.0858C355.914 88.3132 351.824 84.999 347.703 81.6601C343.244 78.0475 338.749 74.406 334.394 75.1906M406.671 85.2622L406.311 85.7699C406.311 85.7699 406.311 85.77 406.311 85.77M406.671 85.2622L406.311 85.77M406.671 85.2622C416.722 86.4028 428.976 81.7238 441.293 77.0211C451.084 73.2826 460.915 69.529 469.71 68.6722M406.311 85.77C398.844 84.9292 391.247 85.3873 383.472 86.1844C380.984 86.4396 378.466 86.731 375.927 87.0248C370.577 87.6441 365.134 88.2741 359.673 88.5981L359.672 88.5982C358.457 88.6687 357.299 88.4516 356.204 88.0744C355.103 87.6954 354.014 87.1363 352.941 86.4734C350.968 85.2553 348.977 83.6426 347.007 82.0465C346.837 81.9082 346.666 81.7701 346.496 81.6324C344.344 79.8918 342.221 78.2141 340.125 77.063C339.078 76.4882 338.063 76.0595 337.084 75.8182C336.105 75.577 335.213 75.5359 334.394 75.6833M406.311 85.77C411.008 86.3028 416.133 85.6104 421.434 84.2779C426.727 82.9476 432.248 80.9649 437.763 78.8827C439.034 78.4029 440.304 77.9181 441.571 77.4342C445.83 75.8082 450.062 74.1925 454.219 72.81C459.607 71.0187 464.782 69.6499 469.595 69.1809M334.394 75.6833L334.394 75.1906M334.394 75.6833C334.393 75.6834 334.393 75.6835 334.393 75.6835L334.394 75.1906M334.394 75.1906C315.128 78.6767 300.144 99.6869 290.318 113.466C289.309 114.881 288.354 116.219 287.455 117.454M287.455 117.454C283.319 123.134 280.607 128.934 278.582 134.694C273.154 149.906 277.392 165.062 303.243 164.502L287.455 117.454ZM469.595 69.1809C469.594 69.1809 469.594 69.181 469.594 69.181L469.71 68.6722M469.595 69.1809C470.192 69.1243 470.771 69.2234 471.345 69.5135C471.926 69.8066 472.465 70.2778 472.968 70.909C473.974 72.1723 474.76 73.9799 475.485 75.9848C475.788 76.8236 476.082 77.7032 476.378 78.5856C476.779 79.7829 477.181 80.9854 477.61 82.0984C478.357 84.0384 479.216 85.8045 480.373 86.9621L480.372 86.9621L480.38 86.9694C481.406 87.9382 482.68 88.642 484.67 88.3473L484.681 88.3456C499.902 85.9724 510.367 90.6256 516.504 97.6709M469.595 69.1809C469.595 69.1808 469.596 69.1807 469.597 69.1807L469.71 68.6722M469.71 68.6722C473.814 68.2825 475.505 73.3368 477.187 78.3609C478.277 81.6203 479.364 84.867 481.102 86.6062C482.114 87.5614 483.196 88.0722 484.716 87.8471C500.375 85.4055 511.05 90.2146 517.25 97.3332M516.504 97.6709C516.503 97.6705 516.503 97.6701 516.503 97.6697L517.25 97.3332M516.504 97.6709C516.504 97.6712 516.504 97.6714 516.504 97.6717L517.25 97.3332M516.504 97.6709C518.438 99.9276 520.096 102.689 519.83 106.905M517.25 97.3332C519.227 99.6388 520.936 102.485 520.644 106.835M519.83 106.905C519.84 106.878 519.852 106.851 519.866 106.824L520.644 106.835M519.83 106.905C519.828 106.925 519.827 106.944 519.826 106.964L520.644 106.835" stroke="#338EFF" stroke-opacity="0.5" stroke-width="1.36" stroke-miterlimit="10"/>
<path d="M349.083 195.496L349.082 195.494C346.526 192.565 344.674 189.311 342.828 186.002C342.752 185.865 342.676 185.729 342.599 185.592C340.834 182.426 339.048 179.222 336.636 176.269C334.204 173.122 331.223 170.912 327.86 169.297L327.856 169.295C319.978 165.584 309.599 165.448 296.587 165.701L296.585 165.701C282.977 165.985 275.091 162.137 271.292 156.205C267.48 150.25 267.784 142.181 270.681 134.069C272.916 127.889 275.829 121.691 280.217 115.625L280.217 115.624C281.154 114.326 282.146 112.924 283.192 111.446C287.929 104.752 293.782 96.4806 300.685 89.057C304.896 84.5285 309.469 80.3476 314.377 77.0531C319.282 73.7603 324.47 71.3869 329.933 70.4026C330.832 70.2436 331.803 70.2935 332.863 70.5599C333.922 70.8263 335.017 71.2961 336.144 71.9228C338.401 73.1775 340.684 75.0014 342.994 76.8899C343.173 77.0358 343.352 77.1822 343.531 77.3286C345.651 79.0642 347.791 80.816 349.912 82.138C351.064 82.8558 352.231 83.4601 353.409 83.8695C354.582 84.2768 355.818 84.5096 357.111 84.4339L357.113 84.4338C362.99 84.0823 368.838 83.3961 374.589 82.7212C377.319 82.4009 380.027 82.0831 382.706 81.8049C391.071 80.9363 399.262 80.4375 407.354 81.3615C412.384 81.9368 417.88 81.1906 423.572 79.7505C429.254 78.3127 435.187 76.1687 441.117 73.913C442.518 73.3801 443.918 72.8413 445.315 72.3035C449.859 70.5546 454.376 68.8163 458.812 67.3246C464.606 65.3766 470.173 63.881 475.347 63.3561C476.013 63.2895 476.649 63.3979 477.272 63.7129C477.901 64.0312 478.481 64.5436 479.018 65.2288C480.092 66.6 480.919 68.5639 481.676 70.7394C481.995 71.658 482.304 72.6212 482.614 73.5868C483.028 74.8775 483.443 76.1726 483.887 77.3715C484.665 79.4749 485.564 81.3847 486.789 82.6307C487.86 83.7201 489.279 84.4096 491.325 84.1221L491.336 84.1205L491.347 84.1188C507.621 81.5637 518.946 86.5757 525.478 94.1706L525.479 94.1716C527.619 96.639 529.407 99.6135 529.027 104.205L529.026 104.219L529.026 104.232C529.026 104.294 529.022 104.369 529.016 104.458L529.015 104.464C529.01 104.54 529.005 104.629 529.004 104.709C528.349 110.897 524.112 117.985 518.572 124.141C513.01 130.322 506.236 135.455 500.634 137.795L500.634 137.795C494.946 140.175 489.785 140.933 484.549 141.489C483.786 141.57 483.02 141.646 482.249 141.723C477.764 142.172 473.13 142.636 468.185 144.038L468.179 144.04C465.177 144.905 462.234 145.972 459.374 147.187L459.37 147.189C451.727 150.47 444.605 154.886 438.003 159.502C433.705 162.507 429.589 165.625 425.688 168.58C423.609 170.155 421.592 171.683 419.641 173.123L419.64 173.124C417.7 174.559 415.572 176.206 413.288 177.973C408.001 182.065 401.879 186.803 395.316 191.063C385.902 197.172 375.886 202.088 366.521 202.663C358.373 203.155 352.64 199.626 349.083 195.496Z" stroke="#338EFF" stroke-opacity="0.5" stroke-width="1.36" stroke-miterlimit="10"/>
<path d="M345.729 199.298L345.729 199.298C349.509 203.73 355.613 207.56 364.447 207.028L364.449 207.028C374.523 206.437 385.272 201.162 395.347 194.611C402.405 190.023 408.984 184.91 414.65 180.507C417.06 178.634 419.306 176.889 421.352 175.368L421.353 175.367C423.382 173.862 425.48 172.268 427.64 170.625C431.847 167.427 436.294 164.045 440.95 160.786C448.011 155.841 455.641 151.111 463.846 147.591M345.729 199.298L464.157 147.99M345.729 199.298C343.024 196.144 341.084 192.653 339.173 189.104C339.047 188.869 338.92 188.634 338.794 188.399C337.014 185.086 335.216 181.739 332.809 178.631L332.807 178.629C330.179 175.283 327.05 172.92 323.436 171.201L323.434 171.2C315.016 167.234 303.929 167.037 290.076 167.327L290.075 167.327C275.411 167.645 266.936 163.528 262.865 157.172C258.781 150.793 259.13 142.143 262.244 133.439M345.729 199.298L261.447 133.473M463.846 147.591L464.157 147.99M463.846 147.591C463.846 147.591 463.846 147.591 463.846 147.591L464.157 147.99M463.846 147.591C466.909 146.276 470.023 145.164 473.284 144.206L473.292 144.203C478.627 142.667 483.617 142.166 488.455 141.68C489.242 141.601 490.025 141.523 490.805 141.44C496.413 140.846 501.948 140.044 508.051 137.497L508.051 137.497C514.066 134.991 521.305 129.483 527.245 122.855C533.168 116.247 537.699 108.636 538.42 101.998L538.42 101.995C538.431 101.906 538.436 101.827 538.441 101.74C538.447 101.656 538.453 101.563 538.465 101.458M464.157 147.99C467.167 146.698 470.227 145.605 473.434 144.663C478.634 143.165 483.486 142.677 488.329 142.19C494.754 141.545 501.164 140.9 508.35 137.902C520.853 132.692 537.773 115.372 539.237 101.883C539.248 101.784 539.254 101.698 539.26 101.611C539.265 101.524 539.271 101.438 539.282 101.339M538.465 101.458C538.465 101.459 538.465 101.461 538.465 101.463L539.282 101.339M538.465 101.458C538.866 96.5222 536.955 93.3494 534.668 90.7333L534.665 90.7299C527.739 82.5868 515.627 77.2163 498.153 79.951M538.465 101.458C538.465 101.456 538.466 101.454 538.466 101.452L539.282 101.339M539.282 101.339C539.693 96.2973 537.736 93.0516 535.414 90.3944C528.422 82.1751 516.099 76.6487 498.184 79.4531M481.417 57.0842C471.348 58.1367 460.092 62.504 448.885 66.8522C434.688 72.3606 420.57 77.8383 409.046 76.5069C397.364 75.1523 385.504 76.5421 373.443 77.9556C367.332 78.6717 361.169 79.3938 354.951 79.7682C350.44 80.0346 345.752 76.1538 341.024 72.2409C335.908 68.0072 330.748 63.7359 325.718 64.6391C303.498 68.6242 286.193 93.1087 274.946 109.021C273.802 110.64 272.72 112.17 271.703 113.581M481.417 57.0842L481.308 57.5922C481.309 57.5921 481.31 57.592 481.311 57.592M481.417 57.0842C486.108 56.6122 487.95 62.5257 489.78 68.4002C490.963 72.1969 492.14 75.9773 494.079 78.007C495.165 79.1117 496.493 79.7251 498.184 79.4531M481.417 57.0842L481.313 57.5917C481.312 57.5918 481.311 57.5919 481.311 57.592M481.311 57.592C475.757 58.1728 469.788 59.7951 463.588 61.8993C458.846 63.5084 454.021 65.3805 449.171 67.2621C447.671 67.8441 446.169 68.427 444.666 69.0033C438.331 71.4325 432.001 73.738 425.943 75.2836C419.877 76.8314 414.028 77.6319 408.684 77.0144L408.684 77.0144C400.002 76.0077 391.204 76.5347 382.227 77.4624C379.314 77.7633 376.371 78.1081 373.406 78.4556C367.273 79.1741 361.044 79.9039 354.79 80.2805L354.788 80.2806C353.417 80.3616 352.103 80.1122 350.853 79.6734C349.598 79.2325 348.354 78.5812 347.125 77.8065C344.865 76.3824 342.586 74.4959 340.325 72.6247C340.13 72.4629 339.935 72.3012 339.739 72.1399C337.271 70.1007 334.829 68.1293 332.412 66.7734C331.205 66.0961 330.029 65.5876 328.888 65.2994C327.747 65.0109 326.695 64.9564 325.715 65.1322L325.715 65.1323C319.847 66.1846 314.279 68.7374 309.018 72.2775C303.755 75.8189 298.854 80.3135 294.343 85.178C286.986 93.1118 280.743 101.943 275.692 109.09C274.545 110.713 273.459 112.249 272.435 113.668M481.311 57.592C482.019 57.5211 482.695 57.6402 483.355 57.982C484.022 58.3274 484.635 58.8819 485.2 59.6208C486.33 61.099 487.197 63.2139 487.988 65.554C488.323 66.5436 488.646 67.5803 488.97 68.6195C489.402 70.0074 489.836 71.3998 490.301 72.691C491.116 74.9566 492.058 77.0116 493.343 78.3571L493.347 78.3607C494.449 79.4822 495.972 80.301 498.153 79.951M272.435 113.668C272.435 113.668 272.436 113.667 272.436 113.667L271.703 113.581M272.435 113.668L271.703 113.581M272.435 113.668C267.755 120.176 264.6 126.866 262.244 133.439M271.703 113.581C266.983 120.143 263.811 126.876 261.447 133.473M261.447 133.473L262.244 133.439M261.447 133.473L262.244 133.439C262.244 133.439 262.244 133.439 262.244 133.439M498.153 79.951C498.152 79.9512 498.151 79.9513 498.15 79.9515L498.184 79.4531M498.153 79.951C498.154 79.9509 498.155 79.9507 498.156 79.9505L498.184 79.4531" stroke="#338EFF" stroke-opacity="0.5" stroke-width="1.36" stroke-miterlimit="10"/>
<path d="M410.175 72.2645C397.713 70.8002 385.064 72.2968 372.203 73.8185C365.683 74.59 359.108 75.368 352.475 75.7698C347.666 76.0557 342.672 71.8923 337.642 67.6986C332.206 63.1662 326.727 58.5986 321.394 59.5739C297.857 63.8205 279.569 89.6421 267.53 106.639C266.209 108.505 264.962 110.265 263.793 111.878C258.708 118.881 255.317 126.056 252.808 133.096C246.126 151.755 251.145 170.437 283.056 169.769M410.175 72.2645L409.809 72.7716M410.175 72.2645L409.81 72.7718C409.81 72.7717 409.81 72.7717 409.809 72.7716M410.175 72.2645C422.43 73.7177 437.47 67.8338 452.601 61.9147C464.534 57.2461 476.524 52.5556 487.248 51.426C492.222 50.8998 494.106 57.1911 495.986 63.4722C497.211 67.5612 498.434 71.6459 500.507 73.8425M409.809 72.7716C400.54 71.6825 391.149 72.2501 381.572 73.2493C378.466 73.5732 375.329 73.9443 372.169 74.3182C365.626 75.0922 358.983 75.878 352.313 76.282L352.312 76.2821C350.862 76.3683 349.471 76.1034 348.144 75.6346C346.811 75.1636 345.489 74.4673 344.182 73.638C341.776 72.1116 339.35 70.0888 336.943 68.0817C336.738 67.9109 336.533 67.7402 336.329 67.5699C333.705 65.386 331.108 63.2732 328.537 61.8208C327.254 61.0952 326.002 60.5499 324.787 60.2413C323.571 59.9324 322.446 59.8742 321.396 60.0662L321.393 60.0668C315.115 61.1994 309.168 63.938 303.556 67.7281C297.943 71.5196 292.719 76.3281 287.912 81.5288C280.2 89.8732 273.636 99.1413 268.278 106.706C266.953 108.577 265.701 110.344 264.524 111.967L264.524 111.967C259.479 118.915 256.106 126.046 253.606 133.062L253.606 133.062C250.286 142.333 249.892 151.564 254.234 158.38C258.562 165.172 267.597 169.583 283.265 169.255M409.809 72.7716C415.481 73.4442 421.695 72.5928 428.147 70.9357C434.591 69.281 441.328 66.8077 448.076 64.199C449.682 63.5783 451.288 62.9502 452.891 62.323C458.052 60.3038 463.19 58.2938 468.239 56.5659C474.85 54.3036 481.218 52.5577 487.145 51.9334L487.145 51.9333C487.913 51.8522 488.636 51.979 489.338 52.3445C490.045 52.7135 490.691 53.3074 491.283 54.0983C492.468 55.6806 493.365 57.9472 494.18 60.4549C494.52 61.5 494.847 62.5926 495.175 63.6886C495.626 65.1936 496.079 66.705 496.568 68.1087C497.416 70.5376 498.403 72.7399 499.766 74.186M283.265 169.255L283.056 169.769M283.265 169.255C283.266 169.255 283.266 169.255 283.267 169.255L283.056 169.769M283.265 169.255C298.031 168.928 309.753 169.184 318.662 173.355L318.664 173.356C322.525 175.178 325.802 177.692 328.553 181.236M283.056 169.769C297.822 169.442 309.328 169.711 318.061 173.799C321.85 175.587 325.078 178.059 327.798 181.564M328.553 181.236C328.552 181.235 328.552 181.234 328.551 181.234L327.798 181.564M328.553 181.236C328.554 181.237 328.555 181.238 328.556 181.239L327.798 181.564M328.553 181.236C331.294 184.604 333.289 188.288 335.271 191.947L335.429 192.239C337.468 196.003 339.513 199.73 342.368 203.109M327.798 181.564C330.521 184.909 332.505 188.573 334.491 192.239C336.579 196.094 338.668 199.951 341.619 203.444M341.619 203.444L342.367 203.109C342.368 203.109 342.368 203.109 342.368 203.109M341.619 203.444C345.695 208.255 352.344 212.51 362.104 211.961M341.619 203.444L342.368 203.109M342.368 203.109C346.42 207.891 352.919 211.974 362.269 211.449M362.104 211.961L362.268 211.449C362.268 211.449 362.269 211.449 362.269 211.449M362.104 211.961C381.119 210.848 401.881 194.708 416.517 183.33C419.038 181.37 421.378 179.551 423.496 177.975L468.189 148.1C459.47 151.836 451.352 156.881 443.831 162.157C438.955 165.578 434.29 169.127 429.87 172.488C427.486 174.301 425.174 176.06 422.939 177.715L422.937 177.716C420.789 179.315 418.431 181.148 415.897 183.118C409.852 187.817 402.81 193.292 395.253 198.203C384.512 205.183 373.029 210.818 362.269 211.449M362.104 211.961L362.271 211.449C362.27 211.449 362.27 211.449 362.269 211.449M499.766 74.186C499.764 74.1842 499.762 74.1823 499.761 74.1804L500.507 73.8425M499.766 74.186C500.887 75.476 502.477 76.28 504.787 75.9409L504.8 75.939C523.475 73.0231 536.278 78.7976 543.701 87.4461M499.766 74.186C499.767 74.1877 499.769 74.1894 499.77 74.1911L500.507 73.8425M500.507 73.8425C501.594 75.0958 502.996 75.7104 504.834 75.4405L543.701 87.4461M543.701 87.4461C543.701 87.4463 543.701 87.4464 543.701 87.4465L544.449 87.1099M543.701 87.4461L548.542 98.8005C548.976 93.4124 546.894 89.9669 544.449 87.1099M543.701 87.4461L544.449 87.1099M543.701 87.4461L544.449 87.1099M478.182 144.519C478.181 144.52 478.179 144.52 478.178 144.521L478.32 144.98L478.187 144.518C478.185 144.519 478.183 144.519 478.182 144.519Z" stroke="#338EFF" stroke-opacity="0.5" stroke-width="1.36" stroke-miterlimit="10"/>
<path d="M244.297 132.474L245.096 132.439C241.607 142.277 241.179 152.102 245.785 159.361C250.376 166.597 259.972 171.3 276.657 170.938C276.657 170.938 276.658 170.937 276.658 170.938L276.448 171.452L244.297 132.474ZM244.297 132.474L245.096 132.439C247.74 124.981 251.355 117.358 256.717 109.918C257.986 108.169 259.338 106.258 260.774 104.23C266.435 96.2322 273.379 86.4215 281.535 77.577C286.643 72.0373 292.198 66.9103 298.168 62.8681C304.136 58.8271 310.466 55.9062 317.146 54.7055L317.149 54.705C318.267 54.5017 319.464 54.5684 320.756 54.9025C322.047 55.2363 323.375 55.8227 324.738 56.6002C327.465 58.1563 330.224 60.4155 333.012 62.7474C333.218 62.9199 333.424 63.0928 333.631 63.2658C336.2 65.4184 338.789 67.5878 341.356 69.2228C342.745 70.107 344.147 70.8485 345.559 71.3496C346.965 71.8486 348.435 72.1289 349.963 72.0375L349.964 72.0374C357.011 71.6083 364.036 70.7788 370.96 69.9612C374.356 69.5602 377.728 69.162 381.067 68.8153C391.257 67.7571 401.255 67.1613 411.114 68.3333C417.118 69.048 423.704 68.1397 430.549 66.3714C437.384 64.6055 444.535 61.9664 451.699 59.1812C453.414 58.5145 455.129 57.8398 456.842 57.166C462.31 55.0143 467.754 52.8723 473.101 51.0303C480.116 48.6138 486.872 46.7474 493.154 46.0791L493.155 46.079C494.152 45.9722 495.084 46.1998 495.972 46.8157C496.86 47.4321 497.633 48.3914 498.322 49.612C499.688 52.0313 500.658 55.3486 501.639 58.7039L501.664 58.7906C502.647 62.1535 503.645 65.549 505.076 67.9991C505.79 69.2232 506.632 70.247 507.676 70.9145C508.726 71.5856 510.051 71.9375 511.72 71.6831L511.722 71.6828C531.502 68.6335 545.093 74.767 552.912 83.9649L552.913 83.9667C555.472 86.9335 557.609 90.5573 557.161 96.1904L557.161 96.1911C556.578 103.743 551.467 112.493 544.703 120.109C537.922 127.745 529.585 134.128 522.678 137.016C515.73 139.922 509.454 140.836 503.11 141.512C502.222 141.607 501.331 141.697 500.436 141.787C494.97 142.339 489.347 142.907 483.312 144.644C471.712 147.973 461.056 153.842 451.322 160.333C444.453 164.914 437.983 169.847 431.947 174.45C429.44 176.362 427.007 178.217 424.651 179.966L424.649 179.967M244.297 132.474L424.649 179.967M424.649 179.967C422.38 181.659 419.882 183.603 417.196 185.694M424.649 179.967L417.196 185.694M417.196 185.694C410.785 190.685 403.299 196.514 395.265 201.741C383.848 209.17 371.627 215.176 360.194 215.822L417.196 185.694Z" stroke="#338EFF" stroke-opacity="0.5" stroke-width="1.36" stroke-miterlimit="10"/>
<path d="M145.232 28.7661L139.264 27.1023L131.416 35.1803L137.384 36.8441L145.232 28.7661Z" fill="#FF5F00"/>
<path d="M135.627 31.2431C137.223 29.6001 139.667 28.4294 142.163 27.927C141.667 26.9174 140.604 26.0943 139.004 25.6484C135.215 24.592 129.915 26.0376 127.153 28.8808C124.392 31.7241 125.223 34.879 129.012 35.9354C130.612 36.3814 132.48 36.3758 134.308 36.0138C133.63 34.6445 134.031 32.8862 135.627 31.2431Z" fill="#EB001B"/>
<path d="M149.497 35.0662C146.735 37.9094 141.435 39.355 137.646 38.2986C136.047 37.8527 134.983 37.0296 134.487 36.02C137.003 35.523 139.428 34.347 141.024 32.704C142.62 31.0609 143.007 29.3169 142.343 27.9334C144.17 27.5714 146.039 27.5658 147.639 28.0117C151.428 29.0681 152.245 32.2373 149.497 35.0662Z" fill="#F79E1B"/>
<path d="M94.6909 62.2645L97.6229 63.0914L103.47 57.2445C103.829 56.8854 103.97 56.4979 104.081 56.1183C104.152 55.8915 104.283 55.715 104.601 55.7553C104.736 55.7769 104.751 55.8962 104.726 55.9879L101.672 64.2333L106.14 65.4934L115.167 56.4666L112.235 55.6396L106.388 61.4866C106.029 61.8456 105.887 62.2331 105.776 62.6127C105.706 62.8395 105.561 63.0289 105.256 62.9758C105.121 62.9541 105.106 62.8348 105.131 62.7431L108.186 54.4977L103.718 53.2376L94.6909 62.2645ZM111.284 61.1579C108.63 63.8121 108.66 66.4671 112.272 67.486C114.262 68.0471 116.174 67.3206 117.199 66.7878C117.341 66.7128 117.566 66.6447 117.676 66.758C117.787 66.8714 117.594 66.9977 117.266 67.1684C116.685 67.4811 116.269 67.8076 116.077 68L115.846 68.2308L118.778 69.0577L123.702 64.134L117.977 62.5195L116.233 64.2633L119.026 65.0509C118.344 65.5983 116.37 66.2745 114.555 65.7626C112.321 65.1326 112.626 63.5747 114.216 61.9848C115.806 60.3948 118.275 59.4473 120.491 60.0724C122.062 60.5154 122.302 61.3721 121.813 62.2862L124.727 63.1082C126.128 61.3497 125.933 59.24 122.32 58.2211C118.306 57.089 113.887 58.555 111.284 61.1579ZM119.967 69.3931L122.899 70.22L128.746 64.3731C129.105 64.0141 129.246 63.6265 129.358 63.2469C129.428 63.0201 129.559 62.8436 129.877 62.8839C130.012 62.9055 130.027 63.0248 130.003 63.1165L126.948 71.3619L131.416 72.622L140.443 63.5952L137.511 62.7683L131.664 68.6152C131.305 68.9742 131.163 69.3617 131.052 69.7413C130.982 69.9681 130.837 70.1575 130.533 70.1044C130.398 70.0827 130.383 69.9634 130.407 69.8717L133.462 61.6263L128.994 60.3663L119.967 69.3931ZM148.821 65.958C147.164 67.1674 146.709 67.5324 143.917 66.7448L142.481 68.1809L145.273 68.9685L139.375 74.8667L142.167 75.6542L151.194 66.6274L148.821 65.958ZM158.59 68.4502C155.134 67.4756 151.271 68.967 148.566 71.6725C145.86 74.3779 145.697 76.9128 149.153 77.8874C152.608 78.8619 156.472 77.3706 159.177 74.6651C161.882 71.9596 162.046 69.4248 158.59 68.4502ZM150.897 76.1435C149.204 75.6661 149.602 74.2166 151.358 72.46C153.115 70.7034 155.153 69.7166 156.846 70.194C158.539 70.6715 158.141 72.1209 156.385 73.8776C154.628 75.6342 152.59 76.621 150.897 76.1435ZM169.967 71.6588C166.511 70.6842 162.648 72.1756 159.943 74.8811C157.237 77.5866 157.074 80.1214 160.53 81.096C163.985 82.0705 167.848 80.5792 170.554 77.8737C173.259 75.1682 173.422 72.6334 169.967 71.6588ZM162.274 79.3521C160.581 78.8747 160.978 77.4253 162.735 75.6686C164.492 73.912 166.53 72.9252 168.223 73.4026C169.916 73.8801 169.518 75.3295 167.761 77.0862C166.005 78.8428 163.966 79.8296 162.274 79.3521ZM164.96 84.4495L166.705 84.9417C168.974 83.9706 169.557 83.7899 170.198 83.1488L172.135 81.2127L169.063 80.3464L166.806 82.6031L167.592 82.8246C167.784 82.8787 167.941 82.923 168.249 82.9278C168.623 82.9346 168.805 82.9532 168.717 83.109C168.641 83.252 168.345 83.2344 167.994 83.2503C167.612 83.2742 167.314 83.3709 167.068 83.4824L164.96 84.4495ZM185.187 75.9515C181.732 74.9769 177.869 76.4682 175.163 79.1737C172.458 81.8792 172.295 84.414 175.75 85.3886C179.206 86.3632 183.069 84.8718 185.774 82.1663C188.48 79.4609 188.643 76.926 185.187 75.9515ZM177.494 83.6448C175.801 83.1673 176.199 81.7179 177.956 79.9612C179.712 78.2046 181.751 77.2178 183.444 77.6953C185.136 78.1727 184.739 79.6222 182.982 81.3788C181.225 83.1354 179.187 84.1222 177.494 83.6448ZM196.564 79.1601C193.109 78.1855 189.246 79.6768 186.54 82.3823C183.835 85.0878 183.671 87.6226 187.127 88.5972C190.583 89.5718 194.446 88.0804 197.151 85.375C199.857 82.6695 200.02 80.1346 196.564 79.1601ZM188.871 86.8534C187.178 86.3759 187.576 84.9265 189.332 83.1698C191.089 81.4132 193.128 80.4264 194.82 80.9039C196.513 81.3813 196.115 82.8308 194.359 84.5874C192.602 86.3441 190.564 87.3308 188.871 86.8534ZM207.941 82.3687C204.485 81.3941 200.622 82.8854 197.917 85.5909C195.211 88.2964 195.048 90.8312 198.504 91.8058C201.96 92.7804 205.823 91.289 208.528 88.5836C211.234 85.8781 211.397 83.3432 207.941 82.3687ZM200.248 90.062C198.555 89.5845 198.953 88.1351 200.709 86.3784C202.466 84.6218 204.504 83.635 206.197 84.1125C207.89 84.5899 207.492 86.0394 205.736 87.796C203.979 89.5527 201.941 90.5394 200.248 90.062ZM202.934 95.1593L204.679 95.6515C206.948 94.6804 207.531 94.4998 208.173 93.8587L210.109 91.9225L207.037 91.0562L204.78 93.3129L205.566 93.5344C205.758 93.5886 205.915 93.6329 206.223 93.6377C206.597 93.6444 206.78 93.6631 206.691 93.8189C206.615 93.9619 206.319 93.9442 205.968 93.9602C205.586 93.984 205.288 94.0807 205.042 94.1922L202.934 95.1593ZM223.162 86.6613C219.706 85.6867 215.843 87.1781 213.137 89.8835C210.432 92.589 210.269 95.1239 213.724 96.0984C217.18 97.073 221.043 95.5817 223.749 92.8762C226.454 90.1707 226.617 87.6359 223.162 86.6613ZM215.468 94.3546C213.775 93.8772 214.173 92.4277 215.93 90.6711C217.686 88.9144 219.725 87.9277 221.418 88.4051C223.111 88.8826 222.713 90.332 220.956 92.0886C219.2 93.8453 217.161 94.8321 215.468 94.3546ZM234.538 89.8699C231.083 88.8953 227.22 90.3867 224.514 93.0921C221.809 95.7976 221.646 98.3325 225.101 99.307C228.557 100.282 232.42 98.7903 235.125 96.0848C237.831 93.3793 237.994 90.8445 234.538 89.8699ZM226.845 97.5632C225.152 97.0858 225.55 95.6363 227.307 93.8797C229.063 92.123 231.102 91.1363 232.795 91.6137C234.488 92.0912 234.09 93.5406 232.333 95.2973C230.576 97.0539 228.538 98.0407 226.845 97.5632ZM245.915 93.0785C242.46 92.1039 238.597 93.5953 235.891 96.3007C233.186 99.0062 233.023 101.541 236.478 102.516C239.934 103.49 243.797 101.999 246.502 99.2934C249.208 96.5879 249.371 94.0531 245.915 93.0785ZM238.222 100.772C236.529 100.294 236.927 98.8449 238.684 97.0883C240.44 95.3316 242.479 94.3449 244.171 94.8223C245.864 95.2998 245.467 96.7492 243.71 98.5059C241.953 100.263 239.915 101.249 238.222 100.772Z" fill="white"/>
<path d="M85.9606 76.2573C86.8558 76.3421 87.8403 75.9886 88.325 75.5039C89.2944 74.5345 88.8324 73.842 87.3035 73.4108L84.2039 72.5367L78.7878 77.9528L82.3691 78.9628C83.877 79.3881 85.2981 78.9604 86.1906 78.0679C86.7368 77.5217 86.7203 76.8267 85.8144 76.4035C85.7593 76.3781 85.751 76.3462 85.7894 76.3077C85.8356 76.2615 85.8901 76.2473 85.9606 76.2573ZM84.616 73.5208L86.8359 74.1469C87.6213 74.3684 87.6207 74.8121 87.2052 75.2275C86.7359 75.6968 85.8228 75.9522 84.9536 75.707L82.985 75.1518L84.616 73.5208ZM82.8472 78.2297L80.5539 77.5829L82.308 75.8288L84.4756 76.4402C85.4599 76.7178 85.617 77.2454 85.1323 77.73C84.6245 78.2378 83.7163 78.4748 82.8472 78.2297ZM86.2972 78.6602C85.6279 79.3295 85.9628 80.0552 86.9785 80.3417C87.9524 80.6163 89.0568 80.4248 89.9451 79.9258C90.0046 79.8932 90.087 79.8376 90.1477 79.8843C90.198 79.928 90.0945 79.9777 90.0043 80.0411C89.7101 80.2145 89.5737 80.324 89.4276 80.4702L89.0506 80.8472L90.0558 81.1307L92.3023 78.8842C93.7486 77.4379 92.9359 76.8142 91.7317 76.4745C90.4961 76.126 89.1613 76.2526 88.0727 77.0996L89.057 77.3772C89.5149 77.0132 90.1011 76.8432 91.0436 77.109C92.1431 77.419 92.0713 77.813 91.7586 78.1391C91.3614 78.5498 90.4721 78.1905 89.4549 77.9727C88.3748 77.7371 87.1973 77.7601 86.2972 78.6602ZM91.1739 78.7238C90.171 79.7133 88.9367 79.9274 88.043 79.7739C87.0892 79.6135 87.0255 79.2207 87.3409 78.9053C87.7025 78.5437 88.2069 78.4689 88.9253 78.5828C89.8267 78.7285 90.557 78.9246 91.1739 78.7238ZM96.6397 75.8861L91.1005 81.4253L92.1057 81.7088L97.6449 76.1696L96.6397 75.8861ZM93.9161 80.809C93.2467 81.4783 93.5816 82.204 94.5973 82.4904C95.5712 82.7651 96.6756 82.5735 97.564 82.0745C97.6234 82.0419 97.7059 81.9863 97.7666 82.033C97.8168 82.0768 97.7134 82.1265 97.6232 82.1898C97.3289 82.3633 97.1926 82.4728 97.0464 82.6189L96.6694 82.9959L97.6747 83.2794L99.9211 81.033C101.367 79.5866 100.555 78.9629 99.3505 78.6233C98.1149 78.2748 96.7801 78.4013 95.6915 79.2483L96.6758 79.5259C97.1338 79.1619 97.72 78.9919 98.6624 79.2577C99.7619 79.5678 99.6901 79.9618 99.3775 80.2879C98.9802 80.6986 98.091 80.3393 97.0737 80.1214C95.9937 79.8859 94.8162 79.9088 93.9161 80.809ZM98.7928 80.8725C97.7899 81.862 96.5555 82.0761 95.6618 81.9227C94.708 81.7622 94.6444 81.3694 94.9598 81.054C95.3214 80.6924 95.8257 80.6177 96.5442 80.7315C97.4456 80.8773 98.1758 81.0733 98.7928 80.8725ZM105.507 80.3596C104.544 80.0879 103.309 80.4499 102.715 80.7755C102.663 80.8003 102.578 80.8453 102.531 80.8122C102.462 80.7732 102.581 80.7081 102.682 80.6477C102.976 80.4743 103.159 80.3186 103.32 80.1571L103.582 79.8955L102.576 79.612L98.6375 83.551L99.6428 83.8345L101.481 81.9958C102.42 81.0572 103.835 80.7164 104.61 80.935C105.311 81.1329 105.591 81.5374 104.676 82.4529L102.491 84.6378L103.496 84.9213L105.835 82.5825C106.989 81.4285 106.743 80.7081 105.507 80.3596ZM106.096 83.1295C104.98 84.245 105.049 85.4381 106.693 85.9018C108.17 86.3182 109.728 85.8207 110.63 85.0394L109.645 84.7618C109.105 85.1815 108.229 85.467 107.381 85.2277C106.354 84.9383 106.37 84.1439 107.101 83.413C107.832 82.6821 109.062 82.2303 110.089 82.5197C110.937 82.7589 110.982 83.3043 110.63 83.7771L111.615 84.0547C112.328 83.2203 112.221 82.2532 110.755 81.8397C109.08 81.3672 107.211 82.014 106.096 83.1295ZM116.663 86.0406C118.063 84.6404 117.394 83.7119 116.2 83.3753C114.661 82.9411 112.767 83.4921 111.582 84.6768C110.467 85.7924 110.473 86.9678 112.159 87.4432C113.53 87.8301 114.925 87.3752 115.876 86.7064L114.839 86.414C114.197 86.8148 113.579 86.9759 112.857 86.7721C111.883 86.4975 111.804 85.8243 112.362 85.1728L116.362 86.301C116.467 86.2222 116.555 86.1483 116.663 86.0406ZM113.03 84.5721C113.707 84.0826 114.601 83.7528 115.606 84.0363C116.423 84.2666 116.518 84.8161 116.003 85.4108L113.03 84.5721Z" fill="#99C7FF"/>
<path d="M47.664 114.554C48.5592 114.639 49.5437 114.285 50.0284 113.801C50.9978 112.831 50.5357 112.139 49.0069 111.708L45.9073 110.834L40.4912 116.25L44.0725 117.26C45.5804 117.685 47.0015 117.257 47.8939 116.365C48.4402 115.819 48.4237 115.124 47.5178 114.7C47.4627 114.675 47.4543 114.643 47.4928 114.605C47.539 114.558 47.5935 114.544 47.664 114.554ZM46.3193 111.818L48.5393 112.444C49.3247 112.665 49.324 113.109 48.9086 113.524C48.4393 113.994 47.5261 114.249 46.657 114.004L44.6884 113.449L46.3193 111.818ZM44.5505 116.527L42.2573 115.88L44.0113 114.126L46.1789 114.737C47.1633 115.015 47.3203 115.542 46.8357 116.027C46.3279 116.535 45.4197 116.772 44.5505 116.527ZM48.0006 116.957C47.3313 117.626 47.6661 118.352 48.6819 118.639C49.6557 118.913 50.7601 118.722 51.6485 118.223C51.7079 118.19 51.7904 118.134 51.8511 118.181C51.9013 118.225 51.7979 118.275 51.7077 118.338C51.4134 118.511 51.2771 118.621 51.1309 118.767L50.754 119.144L51.7592 119.428L54.0057 117.181C55.452 115.735 54.6393 115.111 53.4351 114.771C52.1994 114.423 50.8646 114.549 49.776 115.396L50.7604 115.674C51.2183 115.31 51.8045 115.14 52.7469 115.406C53.8465 115.716 53.7746 116.11 53.462 116.436C53.0647 116.847 52.1755 116.487 51.1583 116.27C50.0782 116.034 48.9007 116.057 48.0006 116.957ZM52.8773 117.021C51.8744 118.01 50.64 118.224 49.7463 118.071C48.7926 117.91 48.7289 117.518 49.0443 117.202C49.4059 116.841 49.9102 116.766 50.6287 116.88C51.5301 117.025 52.2603 117.221 52.8773 117.021ZM59.5917 116.508C58.6284 116.236 57.3938 116.598 56.7997 116.924C56.748 116.948 56.6627 116.993 56.6153 116.96C56.5469 116.921 56.6657 116.856 56.7664 116.796C57.0606 116.622 57.2431 116.467 57.4047 116.305L57.6663 116.044L56.661 115.76L52.722 119.699L53.7273 119.983L55.566 118.144C56.5046 117.205 57.9193 116.865 58.6942 117.083C59.3958 117.281 59.6759 117.685 58.7604 118.601L56.5755 120.786L57.5808 121.069L59.9196 118.731C61.0736 117.577 60.8274 116.856 59.5917 116.508ZM63.1554 122.642L62.9019 119.7L66.9268 118.655L65.6493 118.295L61.4573 119.48C61.3846 119.499 61.2889 119.541 61.2569 119.492C61.2248 119.444 61.3415 119.408 61.4114 119.378C61.73 119.261 61.9236 119.148 62.1929 118.879L65.0086 116.063L64.0034 115.779L58.4642 121.319L59.4694 121.602L60.8388 120.233L61.8198 119.977L61.9407 122.299L63.1554 122.642Z" fill="#99C7FF"/>
<path d="M62.755 97.5028L60.0114 96.7291L54.5953 102.145L55.6844 102.452L57.7154 100.421L59.5375 100.935C61.3176 101.437 62.8785 100.95 63.8479 99.9809C64.8172 99.0116 64.8283 98.0876 62.755 97.5028ZM60.204 100.255L58.3924 99.7443L60.4235 97.7132L62.235 98.2241C63.2508 98.5106 63.3974 99.0352 62.7588 99.6738C62.1818 100.251 61.2197 100.542 60.204 100.255ZM64.8653 101.165C64.797 101.126 64.8899 101.074 64.9724 101.018C65.2975 100.814 65.4415 100.697 65.6031 100.535L65.8646 100.274L64.8594 99.99L60.9204 103.929L61.9256 104.213L63.8105 102.328C64.8414 101.297 65.6994 101.016 67.1828 101.533L67.9367 100.779C66.5859 100.398 66.0052 100.589 65.0393 101.126C64.9799 101.158 64.91 101.188 64.8653 101.165ZM70.4911 101.499C68.868 101.042 66.9787 101.683 65.8631 102.798C64.7476 103.914 64.8059 105.104 66.429 105.562C68.0521 106.019 69.9415 105.378 71.057 104.263C72.1725 103.147 72.1142 101.957 70.4911 101.499ZM67.106 104.884C66.1008 104.601 66.1221 103.828 66.8684 103.082C67.6146 102.335 68.8088 101.893 69.8141 102.176C70.8193 102.46 70.798 103.233 70.0517 103.979C69.3055 104.726 68.1113 105.168 67.106 104.884ZM72.984 102.281L70.9718 106.764L72.4797 107.189L78.3454 103.793L77.2564 103.486L72.7088 106.208C72.5152 106.321 72.3865 106.423 72.2557 106.554C72.2096 106.6 72.1453 106.651 72.072 106.63C71.9987 106.61 72.042 106.553 72.0882 106.507C72.219 106.376 72.3057 106.262 72.3737 106.114L74.0731 102.589L72.984 102.281ZM79.4181 103.149L80.5071 103.456L81.3688 102.595L80.2798 102.288L79.4181 103.149ZM74.7825 107.839L75.7877 108.122L79.7267 104.183L78.7214 103.9L74.7825 107.839ZM86.2257 103.964L84.3177 105.872C84.1716 106.019 84.0771 106.14 83.9993 106.325C83.9692 106.395 83.9551 106.49 83.8378 106.487C83.7309 106.486 83.7764 106.4 83.789 106.374C84.079 105.775 83.7236 105.231 82.865 104.989C81.4723 104.596 79.6368 105.183 78.4674 106.353C77.298 107.522 77.4102 108.659 78.8029 109.051C79.6406 109.288 80.6912 109.15 81.4964 108.667C81.53 108.647 81.6229 108.594 81.6704 108.627C81.752 108.68 81.6304 108.734 81.5375 108.787C81.2844 108.933 81.1558 109.034 81.0173 109.173L80.6865 109.504L81.6918 109.787L87.231 104.248L86.2257 103.964ZM79.6894 108.433C78.6422 108.138 78.7418 107.367 79.4727 106.636C80.2035 105.905 81.3503 105.43 82.3974 105.725C83.3503 105.994 83.3869 106.803 82.656 107.534C81.9251 108.265 80.6423 108.702 79.6894 108.433ZM84.4992 110.658C85.4626 110.93 86.6707 110.54 87.2913 110.242C87.343 110.217 87.4283 110.172 87.4757 110.205C87.5364 110.252 87.4253 110.309 87.3246 110.37C87.0304 110.543 86.8479 110.699 86.6863 110.86L86.4247 111.122L87.43 111.405L91.369 107.467L90.3637 107.183L88.525 109.022C87.5864 109.96 86.1717 110.301 85.3968 110.082C84.6952 109.885 84.415 109.48 85.3305 108.565L87.5155 106.38L86.5102 106.096L84.1714 108.435C83.0174 109.589 83.2636 110.309 84.4992 110.658ZM89.5152 110.238C88.6982 111.122 88.9639 111.917 90.4194 112.327C91.8854 112.741 93.291 112.477 94.0911 111.676C94.7373 111.03 94.333 110.522 93.0033 109.999C91.9333 109.579 91.9036 109.353 92.1575 109.099C92.419 108.838 92.9871 108.672 93.8352 108.912C94.7777 109.177 94.6003 109.65 94.3778 109.913L95.3622 110.191C96.0274 109.431 95.8637 108.655 94.5129 108.274C93.0469 107.861 91.6907 108.277 91.0983 108.87C90.5829 109.385 90.5534 109.978 91.8489 110.482C92.9817 110.92 93.3243 111.154 92.9704 111.508C92.7165 111.762 92.1337 111.982 91.1075 111.693C90.0604 111.398 90.21 110.819 90.4995 110.516L89.5152 110.238ZM103.947 112.346C104.843 112.43 105.827 112.077 106.312 111.592C107.281 110.623 106.819 109.93 105.29 109.499L102.191 108.625L96.7747 114.041L100.356 115.051C101.864 115.476 103.285 115.049 104.177 114.156C104.724 113.61 104.707 112.915 103.801 112.492C103.746 112.466 103.738 112.434 103.776 112.396C103.822 112.35 103.877 112.335 103.947 112.346ZM102.603 109.609L104.823 110.235C105.608 110.457 105.607 110.9 105.192 111.316C104.723 111.785 103.81 112.04 102.94 111.795L100.972 111.24L102.603 109.609ZM100.834 114.318L98.5407 113.671L100.295 111.917L102.462 112.528C103.447 112.806 103.604 113.334 103.119 113.818C102.611 114.326 101.703 114.563 100.834 114.318ZM104.284 114.748C103.615 115.418 103.95 116.143 104.965 116.43C105.939 116.705 107.044 116.513 107.932 116.014C107.991 115.981 108.074 115.926 108.135 115.972C108.185 116.016 108.081 116.066 107.991 116.129C107.697 116.303 107.561 116.412 107.414 116.558L107.037 116.935L108.043 117.219L110.289 114.972C111.735 113.526 110.923 112.902 109.719 112.563C108.483 112.214 107.148 112.341 106.059 113.188L107.044 113.465C107.502 113.101 108.088 112.931 109.03 113.197C110.13 113.507 110.058 113.901 109.745 114.227C109.348 114.638 108.459 114.279 107.442 114.061C106.362 113.825 105.184 113.848 104.284 114.748ZM109.161 114.812C108.158 115.801 106.923 116.016 106.03 115.862C105.076 115.702 105.012 115.309 105.328 114.993C105.689 114.632 106.194 114.557 106.912 114.671C107.814 114.817 108.544 115.013 109.161 114.812ZM115.875 114.299C114.912 114.027 113.677 114.389 113.083 114.715C113.031 114.74 112.946 114.785 112.899 114.752C112.83 114.713 112.949 114.648 113.05 114.587C113.344 114.414 113.527 114.258 113.688 114.097L113.95 113.835L112.944 113.551L109.005 117.49L110.011 117.774L111.849 115.935C112.788 114.997 114.203 114.656 114.978 114.874C115.679 115.072 115.959 115.477 115.044 116.392L112.859 118.577L113.864 118.861L116.203 116.522C117.357 115.368 117.111 114.648 115.875 114.299ZM119.439 120.433L119.185 117.491L123.21 116.447L121.933 116.086L117.741 117.271C117.668 117.29 117.572 117.332 117.54 117.284C117.508 117.235 117.625 117.199 117.695 117.17C118.013 117.052 118.207 116.939 118.476 116.67L121.292 113.854L120.287 113.571L114.748 119.11L115.753 119.393L117.122 118.024L118.103 117.768L118.224 120.09L119.439 120.433Z" fill="white"/>
<path d="M132.996 142.339L134.21 142.681L136.946 136.509L135.27 136.037L127.173 140.697L128.388 141.039L130.278 139.915L133.691 140.878L132.996 142.339ZM131.258 139.324L135.119 137.02C135.261 136.932 135.396 136.851 135.547 136.726C135.604 136.683 135.65 136.637 135.723 136.657C135.797 136.678 135.75 136.724 135.715 136.773C135.605 136.91 135.555 137.014 135.496 137.126L134.065 140.115L131.258 139.324ZM136.141 140.701C135.025 141.816 135.094 143.009 136.738 143.473C138.214 143.889 139.772 143.392 140.675 142.611L139.69 142.333C139.15 142.753 138.274 143.038 137.425 142.799C136.399 142.509 136.415 141.715 137.146 140.984C137.877 140.253 139.107 139.801 140.133 140.091C140.982 140.33 141.027 140.875 140.675 141.348L141.659 141.626C142.373 140.791 142.266 139.824 140.8 139.411C139.125 138.938 137.256 139.585 136.141 140.701ZM141.627 142.248C140.512 143.364 140.58 144.557 142.224 145.02C143.701 145.437 145.259 144.939 146.161 144.158L145.177 143.88C144.636 144.3 143.76 144.585 142.912 144.346C141.886 144.057 141.901 143.262 142.632 142.532C143.363 141.801 144.594 141.349 145.62 141.638C146.468 141.877 146.513 142.423 146.161 142.896L147.146 143.173C147.859 142.339 147.752 141.372 146.286 140.958C144.611 140.486 142.743 141.132 141.627 142.248ZM151.45 143.322L152.096 142.676L150.589 142.25L151.696 141.143L150.691 140.859L149.583 141.967L148.578 141.683L147.932 142.33L148.937 142.613L146.798 144.752C145.944 145.606 146.168 146.054 147.278 146.367L148.157 146.615L148.804 145.968L148.008 145.744C147.421 145.579 147.434 145.405 147.881 144.959L149.942 142.897L151.45 143.322ZM149.942 145.856L148.957 146.84L150.298 147.218L151.283 146.234L149.942 145.856Z" fill="#99C7FF"/>
<path d="M150.106 122.06C148.242 121.534 146.073 122.441 144.488 124.026C142.903 125.611 142.703 127.073 144.567 127.599C146.431 128.124 148.6 127.217 150.185 125.632C151.77 124.048 151.97 122.585 150.106 122.06ZM145.244 126.922C144.019 126.576 144.263 125.54 145.494 124.309C146.724 123.078 148.204 122.391 149.429 122.737C150.654 123.082 150.41 124.118 149.18 125.349C147.949 126.58 146.469 127.267 145.244 126.922ZM155.457 127.041C155.41 127.007 155.323 126.973 155.385 126.912C155.447 126.85 155.549 126.869 155.616 126.868C156.44 126.864 157.261 126.553 157.745 126.068C158.553 125.26 158.302 124.371 156.679 123.913C155.055 123.455 153.527 123.843 152.719 124.651C152.234 125.135 152.235 125.658 152.663 126.036C152.7 126.066 152.787 126.1 152.725 126.162C152.664 126.223 152.562 126.204 152.484 126.202C151.451 126.187 150.529 126.519 149.952 127.096C149.075 127.973 149.37 128.953 151.139 129.452C152.909 129.951 154.604 129.532 155.481 128.655C156.058 128.078 156.085 127.474 155.457 127.041ZM153.686 124.973C154.155 124.503 154.985 124.264 156.032 124.559C157.079 124.855 157.171 125.354 156.702 125.823C156.232 126.293 155.402 126.532 154.355 126.237C153.308 125.941 153.217 125.442 153.686 124.973ZM151.786 128.806C150.592 128.469 150.457 127.879 150.988 127.348C151.519 126.817 152.588 126.567 153.709 126.883C154.829 127.199 155.037 127.81 154.506 128.341C153.976 128.871 152.979 129.143 151.786 128.806ZM156.238 129.352L159.924 130.391L158.785 131.53L159.79 131.813L160.929 130.675L161.934 130.958L162.58 130.312L161.575 130.028L165.206 126.397L163.656 125.96L157.007 128.582L156.238 129.352ZM157.692 129.052L163.631 126.643C163.693 126.621 163.755 126.599 163.795 126.64C163.838 126.692 163.757 126.718 163.657 126.779C163.437 126.904 163.309 127.006 163.17 127.145L160.57 129.745L158.601 129.19C158.235 129.086 157.998 129.108 157.751 129.167C157.679 129.186 157.58 129.217 157.556 129.161C157.534 129.116 157.622 129.081 157.692 129.052ZM163.064 131.277L166.75 132.316L165.611 133.455L166.616 133.738L167.755 132.6L168.76 132.883L169.406 132.237L168.401 131.954L172.032 128.322L170.483 127.885L163.833 130.507L163.064 131.277ZM164.518 130.977L170.457 128.568C170.519 128.547 170.582 128.525 170.621 128.565C170.664 128.617 170.583 128.644 170.483 128.704C170.263 128.829 170.135 128.931 169.996 129.07L167.396 131.67L165.427 131.115C165.061 131.011 164.824 131.033 164.577 131.092C164.505 131.111 164.406 131.142 164.382 131.086C164.36 131.041 164.448 131.006 164.518 130.977ZM175.772 132.77C175.725 132.737 175.638 132.703 175.7 132.641C175.761 132.579 175.863 132.598 175.931 132.598C176.754 132.593 177.575 132.282 178.06 131.798C178.868 130.99 178.616 130.1 176.993 129.643C175.37 129.185 173.842 129.572 173.034 130.38C172.549 130.865 172.55 131.388 172.978 131.765C173.015 131.795 173.102 131.829 173.04 131.891C172.978 131.952 172.877 131.934 172.798 131.931C171.766 131.916 170.844 132.248 170.267 132.825C169.39 133.702 169.684 134.683 171.454 135.182C173.224 135.681 174.919 135.261 175.796 134.384C176.373 133.807 176.399 133.203 175.772 132.77ZM174.001 130.702C174.47 130.233 175.3 129.993 176.347 130.289C177.394 130.584 177.486 131.083 177.016 131.553C176.547 132.022 175.717 132.261 174.67 131.966C173.623 131.671 173.531 131.171 174.001 130.702ZM172.1 134.535C170.907 134.199 170.772 133.608 171.303 133.078C171.834 132.547 172.903 132.296 174.024 132.612C175.144 132.928 175.352 133.539 174.821 134.07C174.29 134.601 173.294 134.872 172.1 134.535ZM176.552 135.081L180.238 136.12L179.1 137.259L180.105 137.543L181.244 136.404L182.249 136.687L182.895 136.041L181.89 135.758L185.521 132.126L183.971 131.689L177.322 134.312L176.552 135.081ZM178.007 134.781L183.946 132.373C184.008 132.351 184.07 132.329 184.11 132.37C184.152 132.421 184.072 132.448 183.971 132.508C183.752 132.634 183.623 132.735 183.485 132.874L180.884 135.474L178.916 134.919C178.549 134.816 178.313 134.838 178.066 134.896C177.993 134.915 177.895 134.947 177.87 134.89C177.849 134.845 177.937 134.811 178.007 134.781ZM184.494 135.891C182.894 137.491 183.278 138.516 184.901 138.974C186.472 139.417 188.371 138.887 189.478 137.78C190.517 136.741 190.256 135.78 188.77 135.36C187.838 135.098 186.987 135.183 186.349 135.378C186.313 135.388 186.206 135.427 186.169 135.396C186.106 135.339 186.288 135.292 186.399 135.234C186.58 135.147 186.729 135.051 186.778 135.016C187.532 134.41 188.632 133.793 189.868 134.141C190.863 134.422 190.774 134.94 190.532 135.276L191.496 135.547C192.207 134.742 192 133.875 190.534 133.461C188.409 132.862 186.394 133.99 184.494 135.891ZM185.053 136.62C185.722 135.951 186.807 135.645 187.875 135.946C188.932 136.245 189.135 136.834 188.404 137.565C187.742 138.227 186.594 138.584 185.536 138.285C184.468 137.984 184.391 137.282 185.053 136.62ZM190.513 138.19C189.336 139.367 189.641 140.311 191.389 140.804C193.034 141.268 194.728 140.848 195.613 139.963C196.19 139.386 196.067 138.73 195.277 138.34C195.232 138.317 195.148 138.294 195.21 138.232C195.271 138.171 195.363 138.187 195.412 138.191C196.365 138.272 197.43 137.931 197.969 137.393C198.885 136.477 198.437 135.69 196.897 135.256C195.316 134.81 193.65 135.267 192.65 136.268L193.635 136.545C194.05 136.13 194.953 135.576 196.252 135.942C197.393 136.264 197.279 136.794 196.91 137.163C196.325 137.748 194.864 137.799 193.397 137.346L192.782 137.962C194.394 138.377 195.277 139.011 194.616 139.672C194.269 140.018 193.334 140.484 192.046 140.121C190.6 139.714 191.044 138.921 191.498 138.467L190.513 138.19ZM199.715 138.931C199.679 138.94 199.573 138.979 199.548 138.923C199.521 138.856 199.654 138.844 199.765 138.787C199.98 138.68 200.186 138.541 200.312 138.428L201.443 137.485L204.825 138.439L205.502 137.762L201.303 136.578L197.723 139.513L198.708 139.791C199.313 139.508 200.018 139.273 200.942 139.543C202.149 139.893 201.997 140.61 201.42 141.187C200.812 141.795 199.738 142.291 198.492 141.939C197.142 141.558 197.479 140.805 197.925 140.359L196.94 140.081C195.917 141.105 196.046 142.117 197.815 142.616C199.732 143.157 201.44 142.455 202.471 141.424C204.417 139.478 201.708 138.388 199.715 138.931ZM203.491 141.85C202.314 143.027 202.618 143.971 204.367 144.464C206.011 144.928 207.706 144.508 208.59 143.623C209.167 143.046 209.045 142.39 208.254 142C208.209 141.977 208.126 141.954 208.187 141.892C208.249 141.831 208.34 141.847 208.39 141.851C209.342 141.932 210.408 141.591 210.946 141.053C211.862 140.137 211.414 139.35 209.875 138.916C208.293 138.47 206.628 138.927 205.628 139.928L206.612 140.205C207.027 139.79 207.931 139.236 209.229 139.602C210.37 139.924 210.256 140.454 209.887 140.823C209.302 141.408 207.841 141.459 206.375 141.006L205.759 141.622C207.371 142.037 208.254 142.671 207.593 143.332C207.247 143.678 206.311 144.144 205.023 143.781C203.578 143.374 204.021 142.581 204.475 142.127L203.491 141.85Z" fill="white"/>
<path d="M240.454 147.619L238.084 149.989L234.398 148.949L236.768 146.579L235.679 146.272L230.263 151.688L231.352 151.996L233.721 149.626L237.407 150.666L235.038 153.035L236.127 153.342L241.543 147.926L240.454 147.619ZM240.531 149.535L238.638 154.248L238.229 154.468C237.788 154.708 237.521 154.801 236.725 154.576L236.243 154.44L235.597 155.087L236.288 155.281C237.252 155.553 238.06 155.416 239.16 154.799L245.893 151.047L244.804 150.74L240.503 153.255C240.302 153.376 240.124 153.513 239.993 153.644C239.947 153.69 239.893 153.744 239.81 153.72C239.726 153.696 239.78 153.643 239.826 153.596C239.957 153.466 240.092 153.316 240.157 153.157L241.62 149.842L240.531 149.535ZM248.963 154.368C250.363 152.968 249.694 152.04 248.5 151.703C246.961 151.269 245.067 151.82 243.882 153.005C242.767 154.12 242.773 155.296 244.459 155.771C245.831 156.158 247.225 155.703 248.176 155.034L247.139 154.742C246.497 155.143 245.879 155.304 245.157 155.1C244.183 154.825 244.104 154.152 244.662 153.501L248.662 154.629C248.768 154.55 248.855 154.476 248.963 154.368ZM245.33 152.9C246.007 152.41 246.901 152.081 247.906 152.364C248.723 152.594 248.818 153.144 248.304 153.739L245.33 152.9ZM261.07 153.433L258.701 155.803L255.015 154.763L257.384 152.394L256.295 152.087L250.879 157.503L251.968 157.81L254.338 155.44L258.024 156.48L255.654 158.85L256.743 159.157L262.159 153.741L261.07 153.433ZM264.594 158.777C265.994 157.377 265.325 156.448 264.131 156.111C262.592 155.677 260.698 156.228 259.514 157.413C258.398 158.529 258.404 159.704 260.09 160.179C261.462 160.566 262.856 160.111 263.807 159.443L262.77 159.15C262.128 159.551 261.51 159.712 260.788 159.508C259.814 159.234 259.735 158.561 260.293 157.909L264.293 159.037C264.399 158.958 264.486 158.884 264.594 158.777ZM260.961 157.308C261.638 156.819 262.532 156.489 263.537 156.772C264.354 157.003 264.449 157.552 263.935 158.147L260.961 157.308ZM269.337 158.487L269.983 157.841L268.475 157.416L269.583 156.308L268.578 156.024L267.47 157.132L266.465 156.848L265.818 157.495L266.824 157.778L264.685 159.917C263.831 160.771 264.054 161.219 265.164 161.532L266.044 161.78L266.69 161.134L265.894 160.909C265.308 160.744 265.321 160.57 265.767 160.124L267.829 158.062L269.337 158.487ZM273.389 161.257C274.789 159.857 274.12 158.929 272.926 158.592C271.387 158.158 269.493 158.709 268.308 159.893C267.193 161.009 267.199 162.184 268.885 162.66C270.257 163.047 271.651 162.592 272.602 161.923L271.565 161.631C270.923 162.031 270.305 162.193 269.583 161.989C268.609 161.714 268.53 161.041 269.088 160.389L273.088 161.518C273.194 161.439 273.281 161.365 273.389 161.257ZM269.756 159.789C270.433 159.299 271.327 158.969 272.332 159.253C273.149 159.483 273.244 160.033 272.73 160.627L269.756 159.789ZM275.266 159.331L273.372 164.044L272.964 164.264C272.522 164.504 272.255 164.597 271.459 164.372L270.978 164.236L270.331 164.883L271.022 165.078C271.986 165.349 272.794 165.212 273.894 164.595L280.627 160.843L279.538 160.536L275.237 163.051C275.036 163.172 274.858 163.309 274.728 163.44C274.682 163.486 274.628 163.54 274.544 163.516C274.46 163.493 274.514 163.439 274.56 163.393C274.691 163.262 274.827 163.113 274.892 162.953L276.355 159.638L275.266 159.331ZM283.697 164.164C285.097 162.764 284.428 161.836 283.234 161.499C281.695 161.065 279.802 161.616 278.617 162.801C277.501 163.916 277.507 165.092 279.193 165.567C280.565 165.954 281.96 165.499 282.91 164.83L281.874 164.538C281.231 164.939 280.614 165.1 279.891 164.896C278.917 164.621 278.839 163.948 279.396 163.297L283.396 164.425C283.502 164.346 283.589 164.272 283.697 164.164ZM280.064 162.696C280.741 162.206 281.635 161.877 282.64 162.16C283.457 162.39 283.552 162.94 283.038 163.535L280.064 162.696ZM289.175 163.175C288.212 162.903 286.977 163.265 286.383 163.59C286.331 163.615 286.246 163.66 286.199 163.627C286.13 163.588 286.249 163.523 286.35 163.463C286.644 163.289 286.826 163.134 286.988 162.972L287.25 162.71L286.244 162.427L282.305 166.366L283.311 166.649L285.149 164.811C286.088 163.872 287.503 163.531 288.277 163.75C288.979 163.948 289.259 164.352 288.344 165.268L286.159 167.453L287.164 167.736L289.503 165.397C290.657 164.243 290.411 163.523 289.175 163.175Z" fill="white"/>
<path d="M215.941 166.01L217.03 166.317L221.154 162.193C221.377 161.97 221.53 161.777 221.603 161.57C221.63 161.489 221.658 161.448 221.754 161.445C221.812 161.442 221.815 161.492 221.802 161.518L220.298 167.238L221.973 167.711L227.389 162.295L226.3 161.988L222.176 166.111C221.953 166.334 221.8 166.528 221.728 166.734C221.701 166.815 221.665 166.864 221.576 166.859C221.516 166.852 221.526 166.815 221.528 166.786L223.033 161.066L221.358 160.594L215.941 166.01ZM223.87 166.835C223.201 167.505 223.536 168.23 224.551 168.517C225.525 168.791 226.63 168.6 227.518 168.101C227.577 168.068 227.66 168.013 227.721 168.059C227.771 168.103 227.667 168.153 227.577 168.216C227.283 168.39 227.147 168.499 227 168.645L226.623 169.022L227.629 169.306L229.875 167.059C231.321 165.613 230.509 164.989 229.305 164.65C228.069 164.301 226.734 164.428 225.645 165.275L226.63 165.552C227.088 165.188 227.674 165.018 228.616 165.284C229.716 165.594 229.644 165.988 229.331 166.314C228.934 166.725 228.045 166.366 227.028 166.148C225.948 165.912 224.77 165.935 223.87 166.835ZM228.747 166.899C227.744 167.888 226.51 168.102 225.616 167.949C224.662 167.789 224.598 167.396 224.914 167.08C225.275 166.719 225.78 166.644 226.498 166.758C227.4 166.904 228.13 167.1 228.747 166.899ZM238.309 167.189C237.65 167.003 236.805 167.15 235.984 167.609C235.925 167.641 235.88 167.658 235.807 167.638C235.744 167.62 235.736 167.588 235.764 167.547C236.092 167.018 235.911 166.513 235.231 166.321C234.498 166.114 233.526 166.294 232.726 166.759C232.685 166.786 232.607 166.824 232.549 166.788C232.491 166.752 232.576 166.707 232.659 166.651C232.976 166.455 233.128 166.33 233.274 166.183L233.536 165.922L232.53 165.638L228.591 169.577L229.597 169.861L231.659 167.799C232.443 167.014 233.6 166.69 234.25 166.873C234.93 167.065 234.874 167.483 234.259 168.098L231.859 170.499L232.864 170.782L235.095 168.551C235.818 167.828 236.836 167.602 237.422 167.768C238.072 167.951 238.234 168.312 237.618 168.928L235.126 171.42L236.131 171.704L238.531 169.303C239.747 168.088 239.315 167.473 238.309 167.189ZM243.809 171.275C245.209 169.875 244.54 168.947 243.347 168.61C241.807 168.176 239.914 168.727 238.729 169.912C237.614 171.027 237.62 172.202 239.305 172.678C240.677 173.065 242.072 172.61 243.023 171.941L241.986 171.649C241.344 172.049 240.726 172.211 240.003 172.007C239.03 171.732 238.951 171.059 239.508 170.407L243.509 171.536C243.614 171.457 243.702 171.383 243.809 171.275ZM240.176 169.807C240.854 169.317 241.747 168.987 242.753 169.271C243.569 169.501 243.664 170.051 243.15 170.646L240.176 169.807Z" fill="#99C7FF"/>
<g filter="url(#filter1_b_1_6533)">
<rect width="268" height="52" rx="26" transform="matrix(0.962455 0.27144 -0.707107 0.707107 57.5292 84.4583)" fill="#2F2F2F" fill-opacity="0.04"/>
</g>
</g>
</g>
<defs>
<filter id="filter0_d_1_6533" x="0.754425" y="0.998047" width="454.514" height="223.569" filterUnits="userSpaceOnUse" color-interpolation-filters="sRGB">
<feFlood flood-opacity="0" result="BackgroundImageFix"/>
<feColorMatrix in="SourceAlpha" type="matrix" values="0 0 0 0 0 0 0 0 0 0 0 0 0 0 0 0 0 0 127 0" result="hardAlpha"/>
<feOffset dy="4"/>
<feComposite in2="hardAlpha" operator="out"/>
<feColorMatrix type="matrix" values="0 0 0 0 0.6 0 0 0 0 0.788235 0 0 0 0 1 0 0 0 1 0"/>
<feBlend mode="normal" in2="BackgroundImageFix" result="effect1_dropShadow_1_6533"/>
<feBlend mode="normal" in="SourceGraphic" in2="effect1_dropShadow_1_6533" result="shape"/>
</filter>
<filter id="filter1_b_1_6533" x="25.1148" y="82.2024" width="285.997" height="114.027" filterUnits="userSpaceOnUse" color-interpolation-filters="sRGB">
<feFlood flood-opacity="0" result="BackgroundImageFix"/>
<feGaussianBlur in="BackgroundImage" stdDeviation="4"/>
<feComposite in2="SourceAlpha" operator="in" result="effect1_backgroundBlur_1_6533"/>
<feBlend mode="normal" in="SourceGraphic" in2="effect1_backgroundBlur_1_6533" result="shape"/>
</filter>
<clipPath id="clip0_1_6533">
<rect width="340" height="180" rx="7.25333" transform="matrix(0.962455 0.27144 -0.707107 0.707107 128.034 0.998047)" fill="white"/>
</clipPath>
</defs>
</svg>
