<svg width="16" height="17" viewBox="0 0 16 17" fill="none" xmlns="http://www.w3.org/2000/svg">
<path d="M7.42764 0.998047L8.5705 0.998047V3.85519H7.42764V0.998047Z" fill="#8A91A8"/>
<path d="M11.2499 4.9415L13.2533 2.9375L14.0613 3.74607L12.0579 5.7495L11.2499 4.9415Z" fill="#8A91A8"/>
<path d="M13.1425 8.42578H15.9996V9.56864H13.1425V8.42578Z" fill="#8A91A8"/>
<path d="M11.2499 13.056L12.0579 12.248L14.0613 14.2515L13.2533 15.06L11.2499 13.056Z" fill="#8A91A8"/>
<path d="M7.42764 14.1406H8.5705V16.9978H7.42764V14.1406Z" fill="#8A91A8"/>
<path d="M1.93936 14.2515L3.94279 12.248L4.75079 13.0566L2.74736 15.06L1.93936 14.2515Z" fill="#8A91A8"/>
<path d="M-9.15527e-05 8.42578H2.85705V9.56864H-9.15527e-05L-9.15527e-05 8.42578Z" fill="#8A91A8"/>
<path d="M1.93936 3.74607L2.74736 2.9375L4.75079 4.9415L3.94279 5.7495L1.93936 3.74607Z" fill="#8A91A8"/>
<path d="M6.51261 6.77173C6.9531 6.47741 7.47097 6.32031 8.00075 6.32031C8.71115 6.32031 9.39245 6.60252 9.89478 7.10485C10.3971 7.60718 10.6793 8.28848 10.6793 8.99888C10.6793 9.52865 10.5222 10.0465 10.2279 10.487C9.93357 10.9275 9.51524 11.2708 9.02579 11.4736C8.53635 11.6763 7.99777 11.7293 7.47818 11.626C6.95859 11.5226 6.48132 11.2675 6.10671 10.8929C5.73211 10.5183 5.477 10.041 5.37364 9.52145C5.27029 9.00185 5.32333 8.46328 5.52607 7.97384C5.7288 7.48439 6.07212 7.06606 6.51261 6.77173Z" stroke="#8A91A8" stroke-width="1.5"/>
</svg>
