<svg width="96" height="26" viewBox="0 0 96 26" fill="none" xmlns="http://www.w3.org/2000/svg">
<path d="M36.7546 21.0152C36.4423 21.0152 36.1299 21.0152 35.7134 21.0152C35.2969 21.0152 34.9846 21.0152 34.5681 20.911C34.1516 20.911 33.7351 20.8069 33.3186 20.7028C32.9021 20.5987 32.5898 20.4946 32.1733 20.3904C31.2362 20.0781 30.7156 19.4533 30.7156 18.5162L30.7156 6.54227C30.7156 6.22991 30.8197 5.91754 31.0279 5.7093C31.2362 5.50106 31.4444 5.39694 31.8609 5.18869C32.5898 4.98045 33.4227 4.77221 34.2557 4.66809C35.0887 4.66809 35.8175 4.56396 36.4423 4.56396C37.7958 4.56396 39.0453 4.77221 40.0865 5.08457C41.1277 5.39694 42.0648 5.91754 42.8978 6.54227C43.7308 7.27112 44.2514 8.1041 44.6679 9.14531C45.0843 10.1865 45.2926 11.436 45.2926 12.7896C45.2926 14.1431 45.0843 15.3926 44.6679 16.4338C44.2514 17.475 43.6266 18.308 42.8978 19.0369C42.1689 19.7657 41.2318 20.2863 40.1906 20.5987C39.2535 20.911 38.0041 21.0152 36.7546 21.0152ZM35.2969 17.2668C35.5052 17.2668 35.7134 17.3709 36.0258 17.3709C36.3381 17.3709 36.5464 17.3709 36.7546 17.3709C37.3794 17.3709 37.9 17.2668 38.3164 17.1627C38.8371 16.9544 39.2535 16.7462 39.5659 16.3297C39.8783 16.0173 40.1906 15.4967 40.3989 14.9761C40.6071 14.3514 40.7112 13.7267 40.7112 12.8937C40.7112 11.3319 40.3989 10.1865 39.67 9.35356C38.9412 8.52058 38.0041 8.20822 36.7546 8.20822C36.5464 8.20822 36.234 8.20822 36.0258 8.20822C35.8175 8.20822 35.5052 8.20822 35.2969 8.31234V17.2668Z" fill="#0E0244"/>
<path d="M47.5834 4.66812C47.5834 4.04339 47.7916 3.41866 48.2081 3.00217C48.6246 2.58568 49.2493 2.37744 49.9782 2.37744C50.707 2.37744 51.2276 2.58568 51.7482 3.00217C52.1647 3.41866 52.373 4.04339 52.373 4.66812C52.373 5.29284 52.1647 5.91757 51.7482 6.33406C51.3317 6.75055 50.707 6.95879 49.9782 6.95879C49.2493 6.95879 48.7287 6.75055 48.2081 6.33406C47.7916 5.81345 47.5834 5.29284 47.5834 4.66812ZM51.3318 20.7028C51.0194 20.7028 50.8111 20.807 50.6029 20.807C50.0823 20.807 49.5617 20.8069 49.2493 20.7028C48.937 20.7028 48.7287 20.5987 48.5205 20.3905C48.3122 20.1822 48.104 19.974 47.9999 19.7657C47.8957 19.4534 47.7916 19.141 47.7916 18.7245L47.7916 8.31237C47.9999 8.31237 48.2081 8.20825 48.6246 8.20825C48.8328 8.20825 49.1452 8.10412 49.3534 8.10412C49.874 8.10412 50.3947 8.10413 50.707 8.20825C51.0194 8.20825 51.2276 8.31237 51.4359 8.52061C51.6441 8.62473 51.8524 8.9371 51.9565 9.14534C52.0606 9.4577 52.1647 9.77007 52.1647 10.1866V19.8699C52.1647 20.2863 51.7482 20.7028 51.3318 20.7028Z" fill="#0E0244"/>
<path d="M61.015 7.68799C61.9521 7.68799 62.8892 7.79211 63.7221 8.10447C64.5551 8.31272 65.1798 8.62508 65.7004 9.04157C66.0128 9.24981 66.3252 9.56218 66.5334 9.87454C66.7417 10.1869 66.8458 10.4993 66.8458 11.0199V20.0784C66.8458 21.0155 66.6375 21.7444 66.3252 22.4732C66.0128 23.098 65.4922 23.7227 64.9716 24.1392C64.3469 24.5557 63.7221 24.868 62.8892 25.0763C62.0562 25.2845 61.2232 25.3886 60.2861 25.3886C58.7243 25.3886 57.4748 25.1804 56.6419 24.7639C55.7048 24.3474 55.2883 23.6186 55.2883 22.6815C55.2883 22.265 55.3924 21.9526 55.4965 21.6403C55.7048 21.3279 55.8089 21.1197 56.0171 20.9114C56.5377 21.2238 57.0584 21.432 57.6831 21.6403C58.3078 21.8485 58.9325 21.9526 59.6614 21.9526C60.5985 21.9526 61.3273 21.8485 61.8479 21.5361C62.3686 21.2238 62.6809 20.7032 62.6809 20.0784V19.662C61.9521 19.9743 61.1191 20.0784 60.0779 20.0784C59.349 20.0784 58.6202 19.9743 57.8913 19.7661C57.1625 19.5578 56.5377 19.1414 56.0171 18.7249C55.4965 18.2043 55.08 17.5795 54.7677 16.8507C54.4553 16.1218 54.2471 15.1847 54.2471 14.1435C54.2471 13.1023 54.4553 12.1652 54.7677 11.4364C55.08 10.7075 55.6007 9.97866 56.1213 9.56218C56.746 9.04157 57.3707 8.7292 58.2037 8.41684C59.1408 7.89623 60.0779 7.68799 61.015 7.68799ZM62.5768 11.4364C62.4727 11.3322 62.2644 11.3322 62.0562 11.2281C61.8479 11.124 61.5356 11.124 61.2232 11.124C60.3902 11.124 59.7655 11.3322 59.349 11.8528C58.9325 12.3735 58.7243 12.9982 58.7243 13.8312C58.7243 14.8724 58.9325 15.4971 59.349 16.0177C59.7655 16.4342 60.2861 16.6424 60.9108 16.6424C61.6397 16.6424 62.1603 16.4342 62.5768 16.1218V11.4364Z" fill="#0E0244"/>
<path d="M69.449 4.66812C69.449 4.04339 69.6572 3.41866 70.0737 3.00217C70.4902 2.58568 71.1149 2.37744 71.8438 2.37744C72.5726 2.37744 73.0932 2.58568 73.6138 3.00217C74.0303 3.41866 74.2386 4.04339 74.2386 4.66812C74.2386 5.29284 74.0303 5.91757 73.6138 6.33406C73.1973 6.75055 72.5726 6.95879 71.8438 6.95879C71.1149 6.95879 70.5943 6.75055 70.0737 6.33406C69.6572 5.81345 69.449 5.29284 69.449 4.66812ZM73.1974 20.7028C72.885 20.7028 72.6767 20.807 72.4685 20.807C71.9479 20.807 71.4273 20.8069 71.1149 20.7028C70.8026 20.7028 70.5943 20.5987 70.3861 20.3905C70.1778 20.2863 69.9696 19.974 69.8655 19.7657C69.7613 19.4534 69.6572 19.141 69.6572 18.7245V8.31237C69.8655 8.31237 70.0737 8.20825 70.4902 8.20825C70.6984 8.20825 71.0108 8.10412 71.219 8.10412C71.7397 8.10412 72.2603 8.10413 72.5726 8.20825C72.885 8.20825 73.0932 8.31237 73.3015 8.52061C73.5097 8.62473 73.718 8.9371 73.8221 9.14534C73.9262 9.4577 74.0303 9.77007 74.0303 10.1866V19.8699C74.0303 20.2863 73.6138 20.7028 73.1974 20.7028Z" fill="#0E0244"/>
<path d="M76.8416 8.10391C76.8416 7.27094 76.9457 6.43796 77.258 5.81323C77.5704 5.1885 77.9869 4.6679 78.5075 4.25141C79.0281 3.83493 79.6528 3.52256 80.2776 3.31432C81.0064 3.10607 81.7353 3.00195 82.4641 3.00195C83.7136 3.00195 84.6507 3.2102 85.2754 3.52256C85.9001 3.83493 86.2125 4.45965 86.2125 5.18851C86.2125 5.50087 86.1084 5.81323 86.0042 6.1256C85.9001 6.43796 85.6919 6.64621 85.4836 6.75033C85.1713 6.64621 84.8589 6.54208 84.4424 6.54208C84.2342 6.64621 83.8177 6.64621 83.2971 6.64621C82.5682 6.64621 81.9435 6.75033 81.527 7.06269C81.1105 7.27094 80.9023 7.79154 80.9023 8.31215V9.14512L85.1713 9.14512C85.2754 9.35337 85.3795 9.56161 85.4836 9.87397C85.5878 10.1863 85.5878 10.4987 85.5878 10.8111C85.5878 11.4358 85.4836 11.8523 85.1713 12.0605C84.8589 12.3729 84.5465 12.477 84.1301 12.477H81.2147V19.8696C81.2147 20.2861 80.9023 20.7026 80.3817 20.8067C79.9652 20.8067 79.6528 20.9109 79.2363 20.9109C78.8199 20.9109 78.5075 20.9109 78.1951 20.8067C77.8828 20.8067 77.6745 20.7026 77.4663 20.4944C77.258 20.3902 77.0498 20.0779 76.9457 19.8696C76.8416 19.5573 76.7374 19.2449 76.7374 18.8284V8.10391H76.8416Z" fill="#0E0244"/>
<path d="M92.1474 16.3298C92.1474 16.7463 92.2515 17.0587 92.5639 17.2669C92.8762 17.4752 93.2927 17.5793 93.8133 17.5793C94.0216 17.5793 94.3339 17.5793 94.6463 17.4752H94.7504C95.1669 17.3711 95.5834 17.5793 95.6875 17.9958C95.7916 18.204 95.8958 18.5164 95.8958 18.8288C95.8958 19.4535 95.6875 19.9741 95.1669 20.3906C94.6463 20.8071 93.8133 21.0153 92.5639 21.0153C91.0021 21.0153 89.8567 20.703 89.0237 19.9741C88.1908 19.2452 87.7743 18.204 87.7743 16.6422V5.60533C87.9825 5.60533 88.1908 5.50121 88.6073 5.39709C88.9196 5.29297 89.3361 5.29297 89.7526 5.29297C90.4814 5.29297 91.1062 5.39709 91.5227 5.70946C91.9392 6.02182 92.1474 6.54243 92.1474 7.3754V9.04134L94.8546 9.04134C95.271 9.04134 95.6875 9.35371 95.8958 9.77019C95.9999 10.0826 95.9999 10.3949 95.9999 10.7073C95.9999 11.332 95.8958 11.7485 95.5834 11.9567C95.271 12.2691 94.9587 12.3732 94.5422 12.3732L92.1474 12.3732V16.3298Z" fill="#0E0244"/>
<path d="M3.74829 3.93931C3.74829 3.52282 3.74829 3.00222 3.85241 2.58573C4.06066 1.54452 4.89363 0.815665 5.83072 0.607422L14.6811 0.607422C18.8459 1.02391 22.0737 4.56404 22.0737 8.83302V16.2256C22.0737 17.4751 21.2407 18.5163 19.9912 18.7246C19.5748 18.7246 19.0542 18.8287 18.6377 18.8287C10.4121 18.8287 3.74829 12.1649 3.74829 3.93931Z" fill="url(#paint0_linear_1_6211)"/>
<path d="M25.5096 7.68774L25.5096 20.7029C25.5096 22.2647 24.2602 23.6183 22.5942 23.9307C22.386 24.0348 22.0736 24.0348 21.8654 24.0348H11.0368C4.89359 24.0348 -0.00012207 19.4535 -0.00012207 13.935L-0.00012207 3.93936C-0.00012207 3.73112 -0.000121675 3.41876 0.104 3.21051C0.208121 2.68991 0.416363 2.27342 0.832849 1.85693C0.832849 2.06518 0.832849 2.27342 0.832849 2.48166C0.832849 13.4144 9.47494 22.1606 20.0953 22.1606C20.7201 22.1606 21.2407 22.1606 21.8654 22.0565C23.4272 21.7441 24.5726 20.2864 24.5726 18.7246L24.5726 4.04349C25.1973 5.18882 25.5096 6.33416 25.5096 7.68774Z" fill="url(#paint1_linear_1_6211)"/>
<path d="M22.0737 8.93714V16.3298C22.0737 17.5792 21.2407 18.6204 19.9912 18.8287C19.5748 18.8287 19.0542 18.9328 18.6377 18.9328C10.4121 18.9328 3.74829 12.269 3.74829 4.04343C3.74829 3.62695 3.74829 3.10634 3.85241 2.68985C4.06066 1.64864 4.89363 0.919787 5.83072 0.711544C6.03896 0.711544 6.14309 0.607422 6.35133 0.607422L13.744 0.607422C14.0563 0.607422 14.3687 0.607422 14.6811 0.711544C18.8459 1.12803 22.0737 4.66816 22.0737 8.93714Z" fill="white"/>
<path d="M22.0737 8.93714V16.3298C22.0737 17.5792 21.2407 18.6204 19.9912 18.8287C19.5748 18.8287 19.0542 18.9328 18.6377 18.9328C10.4121 18.9328 3.74829 12.269 3.74829 4.04343C3.74829 3.62695 3.74829 3.10634 3.85241 2.68985C4.06066 1.64864 4.89363 0.919787 5.83072 0.711544C6.03896 0.711544 6.14309 0.607422 6.35133 0.607422L13.744 0.607422C14.0563 0.607422 14.3687 0.607422 14.6811 0.711544C18.8459 1.12803 22.0737 4.66816 22.0737 8.93714Z" fill="url(#paint2_linear_1_6211)"/>
<defs>
<linearGradient id="paint0_linear_1_6211" x1="3.77849" y1="9.75033" x2="22.0479" y2="9.75033" gradientUnits="userSpaceOnUse">
<stop offset="0.0137063" stop-color="#5AC8FA"/>
<stop offset="0.1956" stop-color="#44B4FB"/>
<stop offset="0.5419" stop-color="#1F94FD"/>
<stop offset="0.8224" stop-color="#087FFF"/>
<stop offset="1" stop-color="#0078FF"/>
</linearGradient>
<linearGradient id="paint1_linear_1_6211" x1="-0.00470342" y1="13.029" x2="25.5606" y2="13.029" gradientUnits="userSpaceOnUse">
<stop offset="0.0137063" stop-color="#5AC8FA"/>
<stop offset="0.1956" stop-color="#44B4FB"/>
<stop offset="0.5419" stop-color="#1F94FD"/>
<stop offset="0.8224" stop-color="#087FFF"/>
<stop offset="1" stop-color="#0078FF"/>
</linearGradient>
<linearGradient id="paint2_linear_1_6211" x1="3.77849" y1="9.72378" x2="22.0479" y2="9.72378" gradientUnits="userSpaceOnUse">
<stop stop-color="#0078FF"/>
<stop offset="0.327" stop-color="#325EFF"/>
<stop offset="0.6177" stop-color="#574AFF"/>
<stop offset="0.8518" stop-color="#6E3EFF"/>
<stop offset="1" stop-color="#763AFF"/>
</linearGradient>
</defs>
</svg>
