<svg width="14" height="15" viewBox="0 0 14 15" fill="none" xmlns="http://www.w3.org/2000/svg">
<path d="M6.99982 0.651855C3.13419 0.651855 -0.000183105 3.78623 -0.000183105 7.65185C-0.000183105 11.5175 3.13419 14.6519 6.99982 14.6519C10.8654 14.6519 13.9998 11.5175 13.9998 7.65185C13.9998 3.78623 10.8654 0.651855 6.99982 0.651855ZM6.99982 13.4644C3.79044 13.4644 1.18732 10.8612 1.18732 7.65185C1.18732 4.44248 3.79044 1.83936 6.99982 1.83936C10.2092 1.83936 12.8123 4.44248 12.8123 7.65185C12.8123 10.8612 10.2092 13.4644 6.99982 13.4644Z" fill="#8A91A8"/>
<path d="M6.24982 4.90186C6.24982 5.10077 6.32883 5.29153 6.46949 5.43219C6.61014 5.57284 6.8009 5.65186 6.99982 5.65186C7.19873 5.65186 7.38949 5.57284 7.53015 5.43219C7.6708 5.29153 7.74982 5.10077 7.74982 4.90186C7.74982 4.70294 7.6708 4.51218 7.53015 4.37153C7.38949 4.23087 7.19873 4.15186 6.99982 4.15186C6.8009 4.15186 6.61014 4.23087 6.46949 4.37153C6.32883 4.51218 6.24982 4.70294 6.24982 4.90186ZM7.37482 6.65186H6.62482C6.55607 6.65186 6.49982 6.70811 6.49982 6.77685V11.0269C6.49982 11.0956 6.55607 11.1519 6.62482 11.1519H7.37482C7.44357 11.1519 7.49982 11.0956 7.49982 11.0269V6.77685C7.49982 6.70811 7.44357 6.65186 7.37482 6.65186Z" fill="#8A91A8"/>
</svg>
